<?xml version="1.0" encoding="UTF-8" standalone="no"?>
<svg
   xmlns:dc="http://purl.org/dc/elements/1.1/"
   xmlns:cc="http://creativecommons.org/ns#"
   xmlns:rdf="http://www.w3.org/1999/02/22-rdf-syntax-ns#"
   xmlns:svg="http://www.w3.org/2000/svg"
   xmlns="http://www.w3.org/2000/svg"
   xmlns:sodipodi="http://sodipodi.sourceforge.net/DTD/sodipodi-0.dtd"
   xmlns:inkscape="http://www.inkscape.org/namespaces/inkscape"
   id="svg"
   version="1.1"
   width="400"
   height="328.75"
   viewBox="0, 0, 400,328.75"
   sodipodi:docname="carYellow.svg"
   inkscape:version="1.0.2-2 (e86c870879, 2021-01-15)">
  <metadata
     id="metadata16">
    <rdf:RDF>
      <cc:Work
         rdf:about="">
        <dc:format>image/svg+xml</dc:format>
        <dc:type
           rdf:resource="http://purl.org/dc/dcmitype/StillImage" />
      </cc:Work>
    </rdf:RDF>
  </metadata>
  <defs
     id="defs14" />
  <sodipodi:namedview
     pagecolor="#ffffff"
     bordercolor="#666666"
     borderopacity="1"
     objecttolerance="10"
     gridtolerance="10"
     guidetolerance="10"
     inkscape:pageopacity="0"
     inkscape:pageshadow="2"
     inkscape:window-width="1920"
     inkscape:window-height="1027"
     id="namedview12"
     showgrid="false"
     inkscape:zoom="3.6840263"
     inkscape:cx="140.0054"
     inkscape:cy="158.80218"
     inkscape:window-x="-8"
     inkscape:window-y="166"
     inkscape:window-maximized="1"
     inkscape:current-layer="svgg"
     inkscape:document-rotation="0" />
  <g
     id="svgg">
    <path
       id="path0"
       d="m 168.421,77.299 c -7.196,0.86 -15,2.261 -19.243,3.454 -14.85,4.174 -27.312,9.414 -40.296,16.942 -3.923,2.274 -12.864,8.104 -13.994,9.124 -0.355,0.32 -1.533,1.239 -2.618,2.041 -1.086,0.802 -2.048,1.542 -2.138,1.644 -0.091,0.103 -0.979,0.852 -1.974,1.664 -4.459,3.641 -12.819,12.065 -16.652,16.779 -0.515,0.634 -1.02,1.226 -1.121,1.316 -0.247,0.219 -3.785,5.184 -5.73,8.04 -2.624,3.854 -5.221,8.372 -7.385,12.848 -1.137,2.352 -2.202,4.534 -2.366,4.848 -0.419,0.801 -0.409,0.811 0.655,0.655 2.019,-0.296 7.9,3.233 9.029,5.418 0.576,1.116 0.754,4.535 0.252,4.845 -0.345,0.214 -2.715,6.133 -3.53,8.82 -1.25,4.12 -6.69,7.055 -13.489,7.278 -1.125,0.037 -1.354,0.156 -1.347,0.702 0.011,0.777 -1.343,9.749 -1.493,9.899 -0.057,0.057 -0.65,0.163 -1.318,0.237 -2.488,0.274 -3.009,1.821 -2.813,8.35 0.205,6.825 0.516,7.212 6.683,8.314 2.171,0.388 4.613,0.836 5.428,0.996 4.147,0.812 11.699,1.915 15.949,2.33 4.695,0.459 4.601,0.523 5.117,-3.481 4.562,-35.429 51.079,-44.515 67.897,-13.261 2.628,4.885 4.865,14.537 4.285,18.491 -0.374,2.549 -0.95,2.429 13.495,2.812 36.759,0.977 91.064,1.18 102.632,0.385 l 2.96,-0.203 0.08,-1.81 c 0.625,-14.161 6.318,-25.381 16.149,-31.827 3.013,-1.976 3.084,-2.017 5.179,-3.033 12.176,-5.905 28.356,-4.553 38.574,3.224 3.192,2.429 7.945,7.121 7.946,7.842 0,0.212 0.125,0.434 0.278,0.494 2.992,1.179 7.247,13.845 7.414,22.067 0.088,4.345 0.103,4.362 3.158,3.888 6.66,-1.033 10.417,-3.82 13.618,-10.102 1.814,-3.559 1.828,-5.711 0.038,-5.711 -1.219,0 -1.453,-1.037 -0.965,-4.277 1.166,-7.743 0.926,-14.892 -0.689,-20.558 -0.917,-3.215 -4.827,-11.523 -5.011,-10.644 -0.173,0.829 -2.425,1.298 -7.204,1.499 l -4.33,0.183 -2.803,-1.357 c -7.338,-3.551 -15.637,-11.981 -15.668,-15.913 -0.007,-0.908 0.964,-4.121 1.831,-6.055 0.255,-0.57 0.464,-1.199 0.464,-1.398 0,-0.198 0.185,-0.367 0.411,-0.375 0.563,-0.018 -8.873,-4.667 -11.924,-5.874 -5.44,-2.151 -8.656,-3.359 -14.454,-5.424 l -6.065,-2.162 -6.764,-6.855 C 250.37,89.752 208.001,72.566 168.421,77.299 m 28.125,18.581 c 13.926,1.175 24.429,3.618 33.264,7.738 1.551,0.724 2.872,1.316 2.934,1.316 1.017,0 10.527,6.357 14.46,9.665 5.545,4.665 14.585,14.459 15.01,16.264 0.115,0.484 0.226,0.672 0.247,0.418 0.03,-0.359 0.186,-0.329 0.698,0.134 0.571,0.517 0.828,0.546 1.929,0.216 6.855,-2.054 17.707,3.489 16.699,8.528 -0.51,2.55 -2.073,3.929 -6.718,5.931 -3.108,1.34 -14.131,1.471 -14.488,0.173 -0.173,-0.627 -0.213,-0.599 -0.371,0.254 l -0.177,0.959 -39.092,-0.078 -39.093,-0.078 0.226,0.711 c 0.124,0.391 0.272,2.77 0.329,5.287 0.108,4.747 0.593,12.956 1.136,19.215 0.279,3.212 0.727,9.36 1.242,17.017 0.094,1.4 0.337,2.678 0.541,2.841 0.211,0.17 15.298,0.348 35.402,0.416 l 35.033,0.121 2.007,-0.763 c 5.427,-2.06 6.19,-4.373 7.394,-22.428 1.023,-15.337 1.046,-15.044 -1.226,-15.892 -3.349,-1.251 -3.69,-1.515 -3.918,-3.035 -0.425,-2.832 -0.525,-2.784 5.812,-2.784 9.958,0 14.7,-1.776 16.706,-6.257 l 0.646,-1.441 0.215,0.971 c 0.118,0.534 0.261,1.128 0.318,1.321 0.143,0.487 -0.497,3.887 -0.77,4.089 -0.123,0.091 -0.443,0.599 -0.711,1.127 -0.976,1.928 -1.143,2.164 -1.535,2.164 -0.22,0 -0.518,0.193 -0.662,0.428 -0.563,0.917 -3.867,2.575 -6.122,3.072 -4.109,0.907 -3.72,0.277 -3.967,6.422 -0.24,6.008 -0.703,12.762 -1.179,17.216 -0.857,8.017 -1.044,9.341 -1.557,11.02 -1.342,4.389 -4.299,7.052 -9.359,8.426 -1.942,0.527 -5.408,0.562 -48.31,0.489 l -46.217,-0.079 -1.4,-0.694 c -2.639,-1.31 -7.472,-7.462 -8.465,-10.774 -0.753,-2.513 -11.318,-14.042 -14.312,-15.617 -9.243,-4.863 -18.432,-6.737 -33.084,-6.747 -6.766,-0.005 -6.804,-0.019 -7.9,-2.974 -0.726,-1.956 -0.709,-7.315 0.035,-10.655 0.523,-2.354 0.523,-2.577 0.001,-3.679 -0.724,-1.525 -0.204,-3.035 1.138,-3.303 0.745,-0.149 0.954,-0.445 1.319,-1.874 0.238,-0.933 0.55,-1.919 0.692,-2.19 0.143,-0.272 0.726,-1.456 1.298,-2.632 0.943,-1.942 5.686,-9.474 6.214,-9.868 0.121,-0.091 0.579,-0.683 1.017,-1.316 8.986,-12.972 19.342,-21.706 29.215,-24.639 2.889,-0.858 4.653,-1.214 10.746,-2.164 2.501,-0.39 12.71,-1.335 19.572,-1.811 2.804,-0.195 5.321,-0.406 5.592,-0.47 1.386,-0.326 16.677,-0.118 21.546,0.293 m -64.803,51.555 c -8.322,0.159 -18.416,0.237 -22.432,0.173 -5.1,-0.082 -7.235,-0.011 -7.083,0.233 0.323,0.521 0.316,1.939 -0.012,2.385 -0.37,0.501 -0.492,7.701 -0.141,8.244 0.193,0.298 1.566,0.412 4.96,0.412 12.328,0 23.838,2.158 31.25,5.861 4.528,2.261 6.701,4.061 13.176,10.915 1.284,1.36 4.131,4.858 4.131,5.077 0,0.084 0.424,0.79 0.943,1.568 0.519,0.778 1.13,2.006 1.359,2.73 0.498,1.577 3.073,5.157 4.825,6.71 l 1.261,1.118 9.359,-0.07 c 5.147,-0.039 9.477,-0.143 9.621,-0.233 0.55,-0.34 0.424,-2.13 -1.7,-23.972 -1.166,-11.994 -1.572,-20.031 -1.044,-20.667 0.707,-0.852 -18.96,-1.049 -48.473,-0.484 m 41.565,3.692 c 2.921,1.51 1.742,6.11 -1.566,6.11 -0.669,0 -1.374,-0.159 -1.568,-0.353 -0.194,-0.193 -1.912,-0.463 -3.818,-0.599 -6.644,-0.475 -7.024,-3.106 -0.567,-3.931 1.357,-0.174 3.134,-0.623 3.948,-0.999 1.761,-0.812 2.366,-0.851 3.571,-0.228 m 27.055,0.61 c 2.586,1.738 0.63,6.469 -2.369,5.73 -2.762,-0.681 -4.024,-0.898 -6.22,-1.067 -5.573,-0.431 -4.932,-3.401 0.83,-3.847 1.286,-0.099 2.949,-0.48 3.778,-0.864 1.899,-0.882 2.608,-0.874 3.981,0.048 M 53.454,194.913 c 2.533,0.278 6.085,0.714 7.895,0.97 1.809,0.255 4.991,0.624 7.072,0.819 7.697,0.721 8.86,1.082 8.132,2.52 -1.321,2.609 -3.07,9.293 -3.174,12.127 -0.033,0.904 -0.181,1.766 -0.329,1.915 -0.59,0.594 -10.62,-0.423 -17.293,-1.755 -0.905,-0.18 -2.237,-0.411 -2.961,-0.513 -1.648,-0.232 -7.157,-1.402 -8.795,-1.867 -2.315,-0.658 -2.389,-0.895 -2.389,-7.631 0,-8.271 -0.581,-7.948 11.842,-6.585 m 100.658,5.602 c 12.313,0.724 53.592,1.861 89.309,2.459 23.473,0.393 23.873,0.423 23.379,1.738 -0.707,1.884 -1.011,3.168 -1.011,4.275 0,0.666 -0.132,1.21 -0.293,1.21 -0.161,0 -0.347,1.696 -0.413,3.769 -0.074,2.318 -0.27,3.918 -0.511,4.159 -1.177,1.177 -116.338,0.333 -117.495,-0.861 -0.172,-0.178 -0.379,-1.951 -0.458,-3.942 -0.168,-4.195 -0.565,-6.553 -1.711,-10.151 -1.134,-3.562 -1.99,-3.315 9.204,-2.656 m 199.835,3.251 c 5.816,0.213 5.973,1.347 1.228,8.885 -0.459,0.73 -2.416,2.631 -3.774,3.666 -1.47,1.12 -3.842,2.029 -6.436,2.465 -3.573,0.6 -3.517,0.66 -3.523,-3.722 -0.005,-2.932 -0.2,-4.506 -0.927,-7.494 -0.633,-2.595 -0.812,-3.861 -0.57,-4.032 0.309,-0.219 2.889,-0.176 14.002,0.232"
       stroke="none"
       fill="#f8c211"
       fill-rule="evenodd" />
    <path
       id="path1"
       d="m 175.164,96.083 c -3.256,0.143 -7.475,0.416 -9.375,0.607 -1.899,0.19 -5.156,0.503 -7.236,0.695 -20.965,1.933 -26.974,4.284 -37.365,14.618 -8.568,8.521 -17.697,21.475 -19.999,28.378 -0.612,1.836 -0.916,2.297 -1.761,2.677 -1.567,0.705 -1.616,2.504 -0.092,3.32 1.596,0.855 10.731,1.086 26.726,0.679 11.5,-0.293 31.482,-0.337 74.689,-0.163 l 58.988,0.237 0.32,-2.697 c 0.175,-1.483 0.254,-2.762 0.174,-2.841 -0.08,-0.08 -17.514,-0.146 -38.742,-0.146 -30.635,0 -38.605,-0.084 -38.639,-0.411 -0.023,-0.226 -0.015,-1.595 0.019,-3.043 0.034,-1.447 -0.173,-5.592 -0.459,-9.21 -0.286,-3.619 -0.738,-10.058 -1.004,-14.309 -0.267,-4.252 -0.629,-8.973 -0.806,-10.491 -0.411,-3.534 -0.69,-3.325 4.445,-3.325 24.181,0 44.192,6.704 59.361,19.887 3.719,3.232 11.489,11.87 14.709,16.352 1.384,1.926 1.366,1.935 1.759,-0.925 0.17,-1.24 0.485,-2.955 0.698,-3.811 0.493,-1.97 -0.107,-2.796 -7.79,-10.737 -12.976,-13.409 -28.42,-21.338 -46.547,-23.896 -7.217,-1.018 -8.562,-1.151 -14.857,-1.473 -7.06,-0.362 -8.419,-0.359 -17.216,0.028 m 0.572,8.851 c 0.133,2.262 0.401,10.551 0.596,18.421 0.195,7.87 0.382,15.124 0.416,16.119 l 0.061,1.809 -6.908,0.065 c -23.999,0.226 -61.584,0.797 -63.733,0.968 -3.155,0.251 -3.156,0.248 -0.764,-3.876 4.762,-8.211 10.392,-15.426 17.945,-22.999 10.902,-10.932 15.576,-12.508 41.947,-14.142 3.438,-0.213 6.318,-0.451 6.401,-0.529 0.084,-0.077 0.972,-0.097 1.974,-0.044 l 1.822,0.096 0.243,4.112 m 122.948,75.832 c -27.349,4.109 -40.138,34.846 -23.619,56.768 16.044,21.291 50.055,17.212 60.667,-7.275 10.953,-25.275 -10.194,-53.527 -37.048,-49.493 m -195.964,0.826 c -20.625,5.329 -31.455,25.797 -23.839,45.053 8.973,22.686 38.412,28.349 55.352,10.646 5.773,-6.033 8.085,-11.482 9.33,-21.995 0.365,-3.086 -1.04,-9.99 -2.927,-14.383 -6.193,-14.414 -23.256,-23.109 -37.916,-19.321 m 13.395,14.273 c 14.034,4.748 18.061,21.972 7.584,32.436 -10.915,10.899 -29.55,5.337 -32.752,-9.776 -3.088,-14.576 11.156,-27.401 25.168,-22.66 m 190.135,1.004 c 18.391,2.349 22.609,28.451 5.921,36.642 -18.907,9.282 -37.027,-12.775 -24.243,-29.51 3.51,-4.595 10.877,-8.005 16.019,-7.416 0.453,0.052 1.489,0.18 2.303,0.284 m -201.151,0.554 c -1.501,0.505 -4.196,1.797 -4.935,2.365 -0.615,0.474 6.443,8.436 7.479,8.436 0.138,0 0.252,-2.517 0.252,-5.592 v -5.593 l -0.905,0.026 c -0.497,0.015 -1.349,0.176 -1.891,0.358 m 7.401,5.209 c 0,3.075 0.113,5.592 0.252,5.592 0.138,0 2.003,-1.756 4.144,-3.902 l 3.892,-3.903 -0.937,-0.659 c -1.383,-0.972 -2.949,-1.727 -4.671,-2.249 -2.85,-0.866 -2.68,-1.191 -2.68,5.121 m 185.3,-3.31 c -2.305,0.83 -5.039,2.345 -5.027,2.786 0.014,0.495 7.373,8.089 7.838,8.089 0.267,0 0.376,-1.663 0.376,-5.756 0,-6.604 0.172,-6.328 -3.187,-5.119 m 8.015,-0.422 c -0.32,0.32 -0.276,11.226 0.046,11.425 0.729,0.45 8.446,-7.995 7.779,-8.513 -1.961,-1.524 -7.246,-3.491 -7.825,-2.912 m -210.577,5.87 c -1.219,2.001 -1.411,2.392 -1.928,3.923 -1.073,3.18 -1.112,3.143 3.318,3.194 2.126,0.024 4.494,0.07 5.262,0.102 2.495,0.104 2.379,-0.21 -1.562,-4.231 -3.989,-4.07 -4.315,-4.261 -5.09,-2.988 m 24.743,3.082 c -4.594,4.538 -4.691,4.319 1.904,4.319 4.05,0 5.477,-0.105 5.592,-0.411 0.477,-1.281 -2.366,-7.516 -3.395,-7.445 -0.309,0.022 -2.155,1.613 -4.101,3.537 m 168.028,-0.697 c -0.989,1.493 -2.154,4.769 -2.154,6.054 v 0.936 h 5.592 c 3.076,0 5.592,-0.121 5.592,-0.269 0,-0.466 -7.324,-7.955 -7.779,-7.955 -0.239,0 -0.802,0.555 -1.251,1.234 m 25.276,2.764 c -4.835,4.779 -4.988,4.473 2.268,4.522 5.564,0.037 5.481,0.084 4.83,-2.677 -0.436,-1.851 -2.044,-5.322 -2.633,-5.687 -0.2,-0.123 -2.165,1.568 -4.465,3.842 m -220.47,6.96 c -0.68,0.819 2.016,7.792 3.014,7.792 0.232,0 2.181,-1.739 4.33,-3.865 l 3.908,-3.865 -2.28,-0.206 c -4.305,-0.389 -8.587,-0.32 -8.972,0.144 m 23.303,0.114 c 0,0.311 7.645,8.007 7.955,8.007 0.858,0 3.816,-6.75 3.415,-7.794 -0.174,-0.455 -11.37,-0.665 -11.37,-0.213 m 169.872,3.155 c 0.311,1.988 2.52,6.332 3.22,6.332 0.556,0 7.829,-6.922 7.829,-7.452 0,-0.153 -2.535,-0.278 -5.634,-0.278 h -5.634 l 0.219,1.398 m 23.381,-1.063 c -0.141,0.228 7.358,7.889 7.722,7.889 0.872,0 4.009,-6.997 3.403,-7.591 -0.292,-0.287 -10.957,-0.573 -11.125,-0.298 m -206.184,5.431 c -2.137,2.074 -3.795,3.918 -3.684,4.097 0.35,0.566 2.941,1.95 4.933,2.635 3.337,1.148 3.13,1.474 3.13,-4.932 0,-3.076 -0.111,-5.588 -0.247,-5.582 -0.136,0.006 -1.995,1.708 -4.132,3.782 m 9.167,1.509 c -0.151,3.376 -0.12,5.42 0.087,5.627 0.778,0.777 7.367,-1.65 7.843,-2.89 0.185,-0.482 -6.851,-8.038 -7.486,-8.038 -0.114,0 -0.313,2.385 -0.444,5.301 m 184.06,0.446 c -3.01,3.025 -3.676,3.859 -3.372,4.225 0.566,0.682 4.627,2.468 6.165,2.711 l 1.345,0.213 0.213,-5.17 c 0.293,-7.079 0.59,-6.943 -4.351,-1.979 m 9.178,1.627 c 0,3.979 0.106,5.435 0.405,5.535 0.764,0.254 5.334,-1.457 6.613,-2.477 l 0.929,-0.741 -3.682,-3.859 c -2.025,-2.122 -3.813,-3.859 -3.974,-3.859 -0.16,0 -0.291,2.43 -0.291,5.401"
       stroke="none"
       fill="#3b1e1e"
       fill-rule="evenodd" />
    <path
       id="path2"
       d="m 173.666,101.219 1.302,0.133 0.125,1.793 0.126,1.793 -0.027,-1.894 -0.028,-1.893 -1.4,-0.032 -1.4,-0.032 1.302,0.132 m 9.969,0.012 c 1.221,0.063 3.219,0.063 4.441,0 1.221,-0.064 0.222,-0.115 -2.221,-0.115 -2.442,0 -3.441,0.051 -2.22,0.115 m -16.447,0.32 c 0.497,0.076 1.311,0.076 1.809,0 0.497,-0.075 0.09,-0.137 -0.905,-0.137 -0.995,0 -1.402,0.062 -0.904,0.137 m 25.493,0.003 c 0.588,0.073 1.55,0.073 2.138,0 0.588,-0.073 0.107,-0.133 -1.069,-0.133 -1.176,0 -1.657,0.06 -1.069,0.133 m -29.436,0.327 c 0.5,0.075 1.24,0.073 1.644,-0.005 0.405,-0.078 -0.004,-0.14 -0.909,-0.137 -0.904,0.002 -1.235,0.066 -0.735,0.142 m 33.548,-0.01 c 0.316,0.083 0.834,0.083 1.151,0 0.317,-0.082 0.058,-0.15 -0.576,-0.15 -0.633,0 -0.892,0.068 -0.575,0.15 m -38.33,0.34 c 0.584,0.073 1.62,0.074 2.303,0.003 0.682,-0.071 0.204,-0.131 -1.062,-0.132 -1.266,-0.002 -1.825,0.056 -1.241,0.129 m 40.797,-0.005 c 0.407,0.078 1.073,0.078 1.48,0 0.407,-0.079 0.074,-0.143 -0.74,-0.143 -0.814,0 -1.147,0.064 -0.74,0.143 m -44.408,0.329 c 0.407,0.078 1.073,0.078 1.48,0 0.407,-0.079 0.074,-0.143 -0.74,-0.143 -0.814,0 -1.147,0.064 -0.74,0.143 m -6.003,0.426 c -1.108,0.198 -1.16,0.239 -0.329,0.257 0.543,0.013 1.653,-0.096 2.467,-0.241 1.328,-0.236 1.362,-0.263 0.329,-0.258 -0.633,0.003 -1.744,0.112 -2.467,0.242 m 32.148,0.657 c 0,0.634 0.068,0.893 0.151,0.576 0.083,-0.317 0.083,-0.835 0,-1.151 -0.083,-0.317 -0.151,-0.058 -0.151,0.575 m 23.937,-0.657 c 0.453,0.144 1.119,0.263 1.48,0.263 0.521,0 0.487,-0.055 -0.164,-0.263 -0.452,-0.145 -1.118,-0.264 -1.48,-0.264 -0.521,0 -0.487,0.055 0.164,0.264 m -60.197,0.657 c -0.651,0.209 -0.686,0.264 -0.165,0.264 0.362,0 1.028,-0.119 1.481,-0.264 0.651,-0.208 0.685,-0.263 0.164,-0.263 -0.362,0 -1.028,0.119 -1.48,0.263 m 63.487,0 c 1.124,0.361 1.989,0.361 1.151,0 -0.362,-0.155 -0.954,-0.278 -1.316,-0.273 -0.529,0.008 -0.496,0.062 0.165,0.273 m 3.125,0.658 c 0.362,0.156 0.88,0.283 1.151,0.283 0.311,0 0.25,-0.104 -0.164,-0.283 -0.362,-0.155 -0.88,-0.282 -1.152,-0.282 -0.311,0 -0.25,0.104 0.165,0.282 m -72.8,0.883 c -0.781,0.276 -1.361,0.56 -1.29,0.631 0.071,0.071 0.932,-0.156 1.912,-0.504 0.981,-0.348 1.561,-0.632 1.29,-0.631 -0.272,0.001 -1.132,0.228 -1.912,0.504 m -4.174,1.845 c -2.268,1.226 -4.965,3.04 -5.281,3.551 -0.118,0.192 0.564,-0.212 1.517,-0.896 0.953,-0.685 2.782,-1.802 4.064,-2.483 1.282,-0.681 2.184,-1.238 2.003,-1.239 -0.181,0 -1.217,0.479 -2.303,1.067 m 41.084,3.358 c 0,2.533 0.052,3.525 0.114,2.206 0.063,-1.32 0.063,-3.392 0,-4.605 -0.064,-1.214 -0.115,-0.134 -0.114,2.399 m 5.896,-2.467 c 0,1.176 0.06,1.657 0.133,1.069 0.073,-0.588 0.073,-1.55 0,-2.138 -0.073,-0.588 -0.133,-0.107 -0.133,1.069 m 42.283,0.336 c 0.789,0.358 1.529,0.644 1.645,0.637 0.415,-0.027 -2.103,-1.275 -2.586,-1.281 -0.271,-0.004 0.152,0.286 0.941,0.644 m 3.007,1.308 c 0.633,0.347 1.299,0.631 1.48,0.631 0.181,0 -0.189,-0.284 -0.822,-0.631 -0.634,-0.346 -1.3,-0.63 -1.481,-0.63 -0.181,0 0.19,0.284 0.823,0.63 m -44.964,2.468 c 0.002,1.085 0.063,1.49 0.136,0.898 0.074,-0.591 0.072,-1.479 -0.003,-1.973 -0.075,-0.495 -0.135,-0.011 -0.133,1.075 m -54.17,-0.302 c -0.518,0.456 -0.877,0.894 -0.798,0.973 0.079,0.079 0.568,-0.298 1.086,-0.839 1.145,-1.195 0.997,-1.264 -0.288,-0.134 m 104.89,0.686 c 0.181,0.179 1.638,1.183 3.237,2.231 6.078,3.984 12.162,9.486 17.546,15.867 1.727,2.047 3.208,3.722 3.29,3.722 0.909,0 -9.661,-11.201 -13.986,-14.821 -3.497,-2.928 -11.784,-8.677 -10.087,-6.999 m -108.892,3.152 -1.963,2.056 2.056,-1.964 c 1.91,-1.824 2.206,-2.148 1.963,-2.148 -0.051,0 -0.976,0.925 -2.056,2.056 m 58.509,2.22 c 0,1.357 0.059,1.912 0.13,1.234 0.07,-0.679 0.07,-1.789 0,-2.467 -0.071,-0.679 -0.13,-0.124 -0.13,1.233 m -6.221,5.592 c 0,3.709 0.048,5.226 0.106,3.372 0.059,-1.854 0.059,-4.889 0,-6.743 -0.058,-1.855 -0.106,-0.338 -0.106,3.371 m -55.584,-4.194 c -2.797,2.995 -3.559,3.865 -3.384,3.865 0.101,0 1.252,-1.184 2.559,-2.631 1.307,-1.448 2.321,-2.632 2.253,-2.632 -0.067,0 -0.71,0.629 -1.428,1.398 m 62.113,2.878 c 0,0.815 0.065,1.148 0.143,0.741 0.078,-0.407 0.078,-1.074 0,-1.481 -0.078,-0.407 -0.143,-0.074 -0.143,0.74 m -69.072,5.346 c -2.747,3.411 -4.253,5.51 -3.954,5.51 0.07,0 0.626,-0.703 1.234,-1.563 0.609,-0.859 1.975,-2.635 3.038,-3.947 1.062,-1.312 1.857,-2.385 1.766,-2.385 -0.09,0 -1.028,1.073 -2.084,2.385 m 69.401,-0.411 c 0,0.814 0.065,1.147 0.143,0.74 0.078,-0.407 0.078,-1.073 0,-1.48 -0.078,-0.408 -0.143,-0.074 -0.143,0.74 m 0.345,3.618 c 0,1.176 0.06,1.657 0.133,1.069 0.073,-0.588 0.073,-1.55 0,-2.138 -0.073,-0.588 -0.133,-0.107 -0.133,1.069 m -6.891,4.605 c 0,1.9 0.054,2.677 0.12,1.727 0.067,-0.949 0.067,-2.504 0,-3.454 -0.066,-0.949 -0.12,-0.172 -0.12,1.727 m -67.431,-1.562 c -1.132,1.921 -1.206,2.085 -0.629,1.398 0.668,-0.796 1.244,-1.809 1.028,-1.809 -0.086,0 -0.266,0.185 -0.399,0.411 m 152.589,1.727 c 0.004,0.724 0.071,0.981 0.15,0.572 0.079,-0.41 0.076,-1.002 -0.007,-1.316 -0.082,-0.315 -0.146,0.02 -0.143,0.744 m -154.128,0.74 c -0.076,0.136 -0.553,0.987 -1.061,1.891 -0.508,0.905 -0.77,1.497 -0.584,1.316 0.476,-0.461 2.172,-3.454 1.958,-3.454 -0.097,0 -0.238,0.111 -0.313,0.247 m 151.374,0.905 c 1.346,1.932 1.653,2.22 2.162,2.025 0.334,-0.128 0.491,-0.568 0.457,-1.275 l -0.053,-1.079 -0.133,1.069 c -0.173,1.397 -0.45,1.35 -1.907,-0.329 -0.668,-0.769 -0.904,-0.954 -0.526,-0.411 m -154.064,3.766 c -0.693,1.34 -0.693,1.339 1.061,1.275 l 1.562,-0.058 -1.396,-0.126 -1.397,-0.125 0.5,-0.968 c 0.276,-0.533 0.427,-0.968 0.337,-0.968 -0.091,0 -0.391,0.436 -0.667,0.97 M 183,140.296 c 0.066,0.642 0.313,0.658 10.097,0.665 l 10.028,0.007 -9.927,-0.094 c -9.092,-0.086 -9.942,-0.142 -10.097,-0.665 -0.129,-0.436 -0.152,-0.415 -0.101,0.087 m -8.164,0.493 -1.645,0.226 1.727,0.052 c 0.966,0.029 1.727,-0.093 1.727,-0.278 0,-0.18 -0.037,-0.305 -0.082,-0.277 -0.046,0.029 -0.823,0.153 -1.727,0.277 m 83.309,0.233 c 0.409,0.079 1.002,0.076 1.316,-0.007 0.315,-0.082 -0.02,-0.146 -0.744,-0.143 -0.724,0.004 -0.981,0.071 -0.572,0.15 m -141.369,0.418 c -3.709,0.098 3.471,0.119 15.954,0.047 12.484,-0.072 22.759,-0.184 22.835,-0.249 0.196,-0.171 -30.751,-0.009 -38.789,0.202 m 118.504,-0.077 c 1.583,0.061 4.173,0.061 5.756,0 1.583,-0.06 0.288,-0.109 -2.878,-0.109 -3.166,0 -4.461,0.049 -2.878,0.109 m 25.22,0.989 c 0.157,1.136 0.18,1.158 0.289,0.289 0.065,-0.52 -0.012,-1.075 -0.171,-1.233 -0.165,-0.166 -0.216,0.237 -0.118,0.944 m 77.658,11.686 c 0,0.063 0.481,0.467 1.069,0.897 0.662,0.485 0.891,0.564 0.603,0.209 -0.438,-0.54 -1.672,-1.355 -1.672,-1.106 m 3.289,2.644 c 0,0.056 0.481,0.538 1.069,1.069 l 1.07,0.966 -0.967,-1.069 c -0.9,-0.997 -1.172,-1.22 -1.172,-0.966 m -40.213,23.496 c 1.13,0.064 2.981,0.064 4.111,0 1.131,-0.064 0.206,-0.117 -2.056,-0.117 -2.261,0 -3.186,0.053 -2.055,0.117 m -192.753,0.328 c 0.956,0.067 2.437,0.066 3.29,-0.002 0.853,-0.067 0.071,-0.122 -1.738,-0.121 -1.809,10e-4 -2.507,0.056 -1.552,0.123 m 202.045,0.415 c 1.125,0.36 1.99,0.36 1.152,0 -0.362,-0.155 -0.954,-0.278 -1.316,-0.273 -0.529,0.008 -0.497,0.061 0.164,0.273 m -211.842,1.264 c -1.357,0.494 -2.763,1.089 -3.125,1.322 l -0.658,0.424 0.658,-0.241 c 0.362,-0.132 1.99,-0.727 3.619,-1.321 1.628,-0.594 2.738,-1.081 2.467,-1.081 -0.272,-0.001 -1.604,0.403 -2.961,0.897 m 19.107,-0.817 c 0.075,0.065 0.581,0.218 1.123,0.339 0.721,0.161 0.854,0.131 0.494,-0.113 -0.444,-0.301 -1.948,-0.51 -1.617,-0.226 m 195.202,0.211 c 0.362,0.155 0.88,0.283 1.152,0.283 0.311,0 0.25,-0.105 -0.165,-0.283 -0.362,-0.156 -0.88,-0.283 -1.151,-0.283 -0.311,0 -0.25,0.105 0.164,0.283 m -24.835,1.645 c -0.633,0.346 -1.003,0.63 -0.822,0.63 0.18,0 0.847,-0.284 1.48,-0.63 0.633,-0.347 1.003,-0.631 0.822,-0.631 -0.181,0 -0.847,0.284 -1.48,0.631 m 29.304,-0.204 c 0.335,0.305 3.591,1.842 3.591,1.695 0,-0.185 -3.142,-1.82 -3.498,-1.82 -0.127,0 -0.169,0.056 -0.093,0.125 m -193.75,0.326 c 0.338,0.303 2.275,1.193 2.275,1.046 0,-0.19 -1.824,-1.168 -2.177,-1.168 -0.129,0 -0.174,0.055 -0.098,0.122 m -31.278,1.828 c -5.617,3.386 -13.87,12.965 -13.81,16.028 0.003,0.153 0.68,-0.98 1.505,-2.518 1.873,-3.493 3.599,-5.799 6.445,-8.61 1.898,-1.874 3.178,-2.829 7.72,-5.762 1.479,-0.955 0.073,-0.303 -1.86,0.862 m 193.339,-0.775 c -1.23,0.667 -1.155,0.945 0.082,0.305 0.543,-0.281 0.987,-0.581 0.987,-0.666 0,-0.212 -0.035,-0.2 -1.069,0.361 m -158.764,0.598 c 0.111,0.119 1.142,0.872 2.293,1.673 1.15,0.801 3.279,2.61 4.731,4.021 1.451,1.411 2.196,2.047 1.655,1.414 -1.633,-1.91 -3.508,-3.652 -5.582,-5.184 -1.828,-1.35 -3.557,-2.424 -3.097,-1.924 m 194.866,0.371 c 0.362,0.294 0.954,0.681 1.316,0.858 l 0.658,0.323 -0.658,-0.535 c -0.362,-0.295 -0.954,-0.681 -1.316,-0.859 l -0.658,-0.323 0.658,0.536 m -39.566,1.282 c -1.085,0.799 -2.073,1.615 -2.195,1.812 -0.122,0.198 0.787,-0.4 2.019,-1.328 2.586,-1.946 2.575,-1.937 2.333,-1.937 -0.101,0 -1.071,0.654 -2.157,1.453 m 42.855,0.996 c 0.724,0.657 2.056,1.796 2.961,2.532 l 1.645,1.337 -1.573,-1.495 c -0.865,-0.822 -2.197,-1.961 -2.961,-2.532 l -1.387,-1.037 1.315,1.195 m -47.544,3.061 -1.798,1.892 1.892,-1.798 c 1.757,-1.671 2.042,-1.985 1.798,-1.985 -0.052,0 -0.903,0.851 -1.892,1.891 m 53.978,3.574 c 1.933,2.51 2.531,3.198 2.109,2.43 -0.464,-0.846 -3.113,-4.236 -3.492,-4.471 -0.199,-0.123 0.423,0.796 1.383,2.041 m -193.946,0.703 c 0.507,0.768 0.985,1.398 1.062,1.398 0.237,0 -1.023,-2.002 -1.517,-2.411 -0.257,-0.212 -0.052,0.244 0.455,1.013 m 135.768,0.822 c -0.977,1.431 -1.959,3.189 -1.597,2.858 0.352,-0.322 2.84,-4.256 2.692,-4.256 -0.078,0 -0.571,0.629 -1.095,1.398 m -167.799,0.095 c -15.055,3.666 -19.669,23.103 -7.864,33.126 10.94,9.289 28.061,3.345 31.024,-10.77 2.815,-13.406 -9.822,-25.604 -23.16,-22.356 m 2.676,1.221 c 0.272,0.781 -0.04,11.529 -0.344,11.833 -0.269,0.269 -8.585,-7.815 -8.879,-8.631 -0.147,-0.408 2.18,-1.882 4.435,-2.809 2.085,-0.857 4.555,-1.06 4.788,-0.393 m 8.54,0.475 c 2.505,1.07 4.545,2.295 4.545,2.73 0,0.38 -8.498,8.884 -8.878,8.884 -0.609,0 -0.746,-10.309 -0.16,-12.089 0.225,-0.683 2.291,-0.465 4.493,0.475 m 22.275,-0.393 c 0.554,1.073 1.01,1.668 1.007,1.316 -0.001,-0.181 -0.305,-0.699 -0.675,-1.152 -0.446,-0.546 -0.558,-0.601 -0.332,-0.164 m 161.052,0.151 c -15.501,2.56 -21.341,21.495 -10.049,32.579 10.357,10.166 28.058,4.975 31.638,-9.277 3.282,-13.068 -8.242,-25.507 -21.589,-23.302 m 34.375,1.329 c 0.37,0.724 0.746,1.316 0.836,1.316 0.091,0 -0.137,-0.592 -0.507,-1.316 -0.369,-0.723 -0.745,-1.316 -0.835,-1.316 -0.091,0 0.137,0.593 0.506,1.316 m -33.138,-0.246 c 0.129,0.338 0.087,11.684 -0.045,12.5 -0.16,0.984 -8.872,-7.33 -9.186,-8.767 -0.317,-1.452 8.712,-5.104 9.231,-3.733 m 6.376,0.08 c 2.62,0.683 7.026,3.037 7.026,3.755 0,1.046 -9.522,9.542 -9.554,8.524 -0.082,-2.616 0.082,-12.285 0.211,-12.495 0.217,-0.35 0.1,-0.361 2.317,0.216 m -167.174,1.643 c 0.552,1.323 1.149,2.4 1.163,2.101 0.016,-0.331 -1.322,-3.249 -1.49,-3.249 -0.084,0 0.063,0.517 0.327,1.148 m 194.984,0.332 c 0.598,1.78 1.705,4.43 1.807,4.328 0.163,-0.163 -1.092,-3.501 -1.565,-4.163 -0.194,-0.271 -0.303,-0.345 -0.242,-0.165 m -257.754,2.673 c -0.292,0.856 -0.52,1.715 -0.506,1.909 0.013,0.194 0.308,-0.45 0.657,-1.43 0.348,-0.981 0.575,-1.84 0.506,-1.909 -0.07,-0.07 -0.365,0.574 -0.657,1.43 m 22.794,4.217 c 2.846,2.868 4.003,4.25 3.862,4.616 -0.218,0.569 -11.133,0.742 -12.027,0.189 -1.155,-0.713 2.153,-8.899 3.597,-8.899 0.278,0 2.333,1.843 4.568,4.094 m 25.985,-0.496 c 0.678,1.471 1.059,2.849 1.109,4.009 l 0.075,1.768 -5.757,0.082 c -8.096,0.114 -8.037,0.283 -1.975,-5.625 l 3.999,-3.899 0.758,0.712 c 0.417,0.392 1.223,1.721 1.791,2.953 m 167.109,2.508 c 2.391,2.453 4.288,4.637 4.216,4.852 -0.221,0.658 -11.802,0.655 -12.312,-0.003 -0.943,-1.216 2.094,-9.31 3.493,-9.31 0.141,0 2.213,2.007 4.603,4.461 m 24.442,-3.556 c 1.513,1.735 3.634,7.697 3.066,8.616 -0.304,0.492 -12.23,0.475 -12.534,-0.017 -0.202,-0.326 8.253,-9.175 8.766,-9.175 0.11,0 0.426,0.259 0.702,0.576 m 19.383,-0.247 c 0,0.271 0.127,0.79 0.283,1.151 0.178,0.415 0.283,0.476 0.283,0.165 0,-0.271 -0.128,-0.79 -0.283,-1.151 -0.178,-0.415 -0.283,-0.476 -0.283,-0.165 m -260.691,0.727 c -0.11,0.414 -0.188,1.049 -0.173,1.411 0.016,0.362 0.164,0.081 0.33,-0.625 0.321,-1.367 0.184,-2.055 -0.157,-0.786 m 191.425,0.777 c -0.121,0.482 -0.156,0.94 -0.079,1.017 0.078,0.078 0.24,-0.253 0.361,-0.735 0.121,-0.482 0.157,-0.94 0.079,-1.018 -0.077,-0.077 -0.24,0.254 -0.361,0.736 m -125.116,0.799 c -0.004,0.452 0.112,1.192 0.257,1.644 0.354,1.106 0.354,-0.088 0,-1.48 -0.226,-0.886 -0.252,-0.903 -0.257,-0.164 m 124.347,3.618 c 0,0.633 0.067,0.892 0.15,0.576 0.083,-0.317 0.083,-0.835 0,-1.151 -0.083,-0.317 -0.15,-0.058 -0.15,0.575 M 76.11,214.309 c 0.001,1.99 0.055,2.762 0.12,1.715 0.066,-1.047 0.065,-2.675 -0.001,-3.618 -0.066,-0.943 -0.12,-0.087 -0.119,1.903 m 262.8,-1.316 c 0.002,0.905 0.066,1.236 0.142,0.736 0.075,-0.5 0.073,-1.24 -0.005,-1.645 -0.078,-0.404 -0.14,0.005 -0.137,0.909 m -195.077,1.316 c 0.004,0.724 0.071,0.981 0.15,0.572 0.078,-0.409 0.075,-1.001 -0.007,-1.316 -0.082,-0.314 -0.147,0.021 -0.143,0.744 m -39.228,2.132 c 0.518,0.328 -7.925,8.873 -8.777,8.883 -1.227,0.015 -4.21,-7.131 -3.62,-8.67 0.237,-0.616 11.456,-0.809 12.397,-0.213 m 23.169,0.464 c 0.742,1.122 -2.199,8.436 -3.493,8.686 -0.387,0.075 -4.808,-4.119 -8.779,-8.327 -0.067,-0.072 -0.037,-0.353 0.067,-0.625 0.269,-0.7 11.731,-0.451 12.205,0.266 m 211.136,2.009 c 0.002,0.905 0.066,1.236 0.142,0.736 0.075,-0.5 0.073,-1.24 -0.005,-1.645 -0.078,-0.404 -0.14,0.005 -0.137,0.909 m -43.926,-0.607 c 1.984,0.155 2.713,0.333 2.713,0.665 0,0.428 -7.599,8.034 -8.274,8.282 -1.332,0.489 -4.506,-6.77 -3.784,-8.653 0.218,-0.567 4.214,-0.693 9.345,-0.294 m 26.012,1.036 c 0.262,1.853 -2.842,8.289 -3.999,8.289 -0.37,0 -3.843,-3.439 -7.739,-7.664 -1.326,-1.438 -0.824,-1.569 5.651,-1.472 5.961,0.089 5.979,0.092 6.087,0.847 m -53.485,1.052 c 0,0.633 0.067,0.892 0.15,0.575 0.083,-0.316 0.083,-0.834 0,-1.151 -0.083,-0.317 -0.15,-0.057 -0.15,0.576 m -159.287,5.592 c 0,6.429 0,6.429 -1.944,6.298 -1.416,-0.096 -6.222,-2.326 -7.063,-3.278 -0.804,-0.909 7.678,-9.724 8.731,-9.073 0.152,0.094 0.276,2.818 0.276,6.053 m 8.854,-1.824 c 4.451,4.495 4.482,4.577 2.298,5.956 -4.018,2.536 -7.935,2.945 -7.685,0.802 0.053,-0.452 0.109,-3.08 0.124,-5.839 0.034,-6.319 -0.067,-6.302 5.263,-0.919 m -40.41,-3.083 c 0.013,0.437 0.157,1.091 0.321,1.453 0.208,0.458 0.237,0.259 0.098,-0.658 -0.233,-1.527 -0.453,-1.944 -0.419,-0.795 m 224.648,6.878 c 0,5.61 -0.031,5.889 -0.665,6.09 -1.18,0.375 -7.156,-2.013 -8.207,-3.28 -0.513,-0.618 7.819,-9.34 8.513,-8.912 0.238,0.147 0.359,2.207 0.359,6.102 m 8.822,-1.828 c 2.925,2.99 3.945,4.239 3.791,4.642 -0.228,0.594 -4.498,2.781 -5.43,2.781 -0.311,0 -0.657,0.148 -0.769,0.329 -0.214,0.346 -1.777,0.446 -2.522,0.161 -0.768,-0.294 -0.435,-12.004 0.341,-12.004 0.323,0 2.387,1.841 4.589,4.091 m -167.666,-2.719 c -0.021,0.301 -0.123,0.82 -0.227,1.151 -0.18,0.571 -0.17,0.572 0.187,0.016 0.206,-0.322 0.309,-0.84 0.227,-1.151 -0.134,-0.509 -0.152,-0.511 -0.187,-0.016 m 125.666,0.602 c 0,0.272 0.128,0.79 0.283,1.151 0.178,0.415 0.283,0.476 0.283,0.165 0,-0.271 -0.127,-0.79 -0.283,-1.151 -0.178,-0.415 -0.283,-0.476 -0.283,-0.165 m 69.55,1.504 c -0.121,0.482 -0.157,0.94 -0.079,1.017 0.077,0.078 0.24,-0.253 0.361,-0.735 0.121,-0.482 0.156,-0.94 0.079,-1.018 -0.078,-0.077 -0.24,0.254 -0.361,0.736 m -68.914,0.658 c -0.034,0.497 1.01,3.493 1.163,3.339 0.07,-0.069 -0.158,-0.928 -0.506,-1.909 -0.348,-0.98 -0.644,-1.624 -0.657,-1.43 m -127.421,0.538 c -0.096,0.234 -0.412,0.98 -0.703,1.659 -0.29,0.678 -0.458,1.233 -0.374,1.233 0.22,0 1.534,-3.036 1.38,-3.19 -0.07,-0.07 -0.206,0.064 -0.303,0.298 m -62.724,0.754 c -0.003,0.972 5.471,9.596 5.85,9.217 0.057,-0.058 -0.573,-0.997 -1.402,-2.086 -0.828,-1.089 -2.168,-3.213 -2.977,-4.72 -0.809,-1.507 -1.471,-2.592 -1.471,-2.411 m 59.983,4.669 c -1.693,2.92 -6.512,7.929 -9.627,10.008 -2.854,1.904 -3.251,2.23 -1.847,1.517 4.162,-2.113 10.177,-8.186 12.377,-12.493 1.018,-1.993 0.48,-1.416 -0.903,0.968 m 131.783,-1.398 c 0,0.411 1.824,3.608 3.313,5.806 1.602,2.365 4.166,5.166 6.33,6.914 1.037,0.839 0.72,0.459 -0.809,-0.968 -2.827,-2.64 -5.253,-5.761 -7.389,-9.51 -0.795,-1.395 -1.445,-2.404 -1.445,-2.242 m 64.144,2.486 c -0.369,0.723 -0.597,1.315 -0.506,1.315 0.09,0 0.466,-0.592 0.835,-1.315 0.37,-0.724 0.598,-1.316 0.507,-1.316 -0.09,0 -0.466,0.592 -0.836,1.316 m -2.096,3.415 c -0.671,0.973 -1.509,2.032 -1.864,2.353 -0.355,0.321 -0.645,0.723 -0.645,0.894 0,0.379 2.688,-2.822 3.442,-4.099 0.899,-1.521 0.367,-1.036 -0.933,0.852 m -247.512,0.532 c 0.168,0.547 4.946,4.784 6.008,5.328 0.848,0.434 0.576,0.185 -2.385,-2.188 -1.32,-1.058 -2.71,-2.309 -3.088,-2.779 -0.378,-0.47 -0.618,-0.632 -0.535,-0.361 m 243.986,3.82 c -0.242,0.291 -1.555,1.426 -2.919,2.522 -2.798,2.25 -3.38,2.771 -2.643,2.364 1.404,-0.774 6.698,-5.416 6.177,-5.416 -0.096,0 -0.373,0.238 -0.615,0.53 m -236.154,2.593 c 0,0.22 3.988,2.209 4.135,2.062 0.066,-0.066 -0.837,-0.593 -2.007,-1.17 -1.17,-0.577 -2.128,-0.978 -2.128,-0.892 m 31.827,1.124 c -1.708,0.797 -2.019,1.206 -0.412,0.54 0.723,-0.3 1.456,-0.686 1.628,-0.857 0.411,-0.41 0.253,-0.369 -1.216,0.317 m 158.049,0.766 c 0.88,0.73 4.57,2.877 4.156,2.418 -0.116,-0.129 -1.301,-0.893 -2.632,-1.697 -1.331,-0.805 -2.017,-1.129 -1.524,-0.721 m -184.412,0.729 c 0.563,0.259 1.451,0.556 1.974,0.659 0.813,0.16 0.784,0.122 -0.201,-0.264 -1.777,-0.697 -3.032,-0.976 -1.773,-0.395 m 220.921,1.698 c -1.862,0.974 -3.228,1.77 -3.036,1.77 0.454,0 5.236,-2.424 6.092,-3.087 0.984,-0.764 0.64,-0.615 -3.056,1.317 m -202.207,-0.533 c -0.838,0.361 0.026,0.361 1.151,0 0.661,-0.211 0.693,-0.265 0.165,-0.273 -0.362,-0.005 -0.954,0.118 -1.316,0.273 m -11.162,0.702 c 1.324,0.285 6.929,0.298 8.497,0.02 0.718,-0.128 -1.083,-0.228 -4.089,-0.228 -2.956,0 -4.939,0.093 -4.408,0.208 m 182.379,0.614 c 0.633,0.347 1.299,0.631 1.48,0.631 0.181,0 -0.189,-0.284 -0.822,-0.631 -0.633,-0.346 -1.3,-0.63 -1.48,-0.63 -0.181,0 0.189,0.284 0.822,0.63 m 4.112,1.645 c 0.362,0.155 0.88,0.283 1.151,0.283 0.311,0 0.25,-0.105 -0.164,-0.283 -0.362,-0.156 -0.88,-0.283 -1.152,-0.283 -0.311,0 -0.25,0.105 0.165,0.283 m 19.901,0.329 c -0.677,0.217 -0.706,0.268 -0.164,0.291 0.361,0.015 0.88,-0.116 1.151,-0.291 0.576,-0.373 0.176,-0.373 -0.987,0 m -14.72,0.885 c 0.316,0.082 0.834,0.082 1.151,0 0.317,-0.083 0.058,-0.151 -0.576,-0.151 -0.633,0 -0.892,0.068 -0.575,0.151 m 10.526,0 c 0.317,0.082 0.835,0.082 1.151,0 0.317,-0.083 0.058,-0.151 -0.575,-0.151 -0.634,0 -0.893,0.068 -0.576,0.151 m -6.743,0.345 c 1.13,0.065 2.981,0.065 4.111,0 1.131,-0.064 0.206,-0.117 -2.056,-0.117 -2.261,0 -3.186,0.053 -2.055,0.117"
       stroke="none"
       fill="#989393"
       fill-rule="evenodd" />
    <path
       id="path4"
       d="m 168.586,76.301 c -0.724,0.133 -2.797,0.425 -4.606,0.649 -3.798,0.469 -12.894,2.253 -13.712,2.689 -0.304,0.162 -0.835,0.295 -1.178,0.295 -2.199,0 -21.055,6.698 -25.034,8.892 -0.295,0.163 -3.127,1.57 -6.293,3.126 -5.608,2.757 -6.442,3.202 -11.035,5.878 -18.662,10.878 -35.208,26.895 -45.444,43.993 -4.699,7.85 -6.156,10.918 -10.096,21.27 -1.194,3.138 -2.773,8.323 -3.575,11.743 -0.467,1.99 -1.239,5.278 -1.716,7.307 -0.478,2.029 -1.022,5.138 -1.21,6.908 -0.381,3.582 -0.457,3.729 -2.184,4.213 -2.066,0.578 -2.467,1.907 -2.477,8.216 -0.015,8.98 -0.599,8.552 15.237,11.178 1.719,0.285 4.309,0.735 5.757,1 10.407,1.904 13.65,1.575 13.652,-1.383 0.008,-9.375 6.549,-21.234 14.754,-26.749 0.942,-0.633 1.893,-1.309 2.114,-1.501 1.04,-0.908 6.393,-3.144 10.269,-4.29 4.234,-1.252 15.507,-0.748 19.408,0.868 6.25,2.588 8.641,4.019 12.769,7.644 1.453,1.275 4.533,4.856 5.323,6.188 0.181,0.305 0.76,1.255 1.287,2.111 1.48,2.403 3.338,7.007 3.784,9.375 0.222,1.176 0.485,2.434 0.584,2.796 0.099,0.362 0.274,2.655 0.388,5.096 0.202,4.321 0.229,4.447 1.03,4.822 2.553,1.195 118.058,1.829 119.355,0.656 0.541,-0.49 0.648,-1.183 0.785,-5.077 0.24,-6.84 1.803,-11.889 5.618,-18.146 10.681,-17.52 36.697,-22.547 52.578,-10.161 0.66,0.514 1.305,0.935 1.433,0.935 1.351,0 8.101,8.484 10.299,12.943 2.361,4.791 3.309,8.742 3.563,14.853 0.237,5.67 0.275,5.757 2.55,5.757 5.197,0 11.011,-3.087 13.939,-7.402 3.584,-5.279 4.3,-8.435 2.219,-9.783 -1.356,-0.878 -1.37,-1.019 -0.664,-6.676 3.306,-26.512 -14.425,-47.084 -52.794,-61.252 -5.973,-2.206 -10.369,-3.766 -11.677,-4.145 -1.068,-0.309 -2.742,-1.806 -8.882,-7.946 -4.161,-4.161 -8.513,-8.38 -9.67,-9.375 -3.003,-2.583 -9.449,-7.727 -11.383,-9.084 -0.904,-0.634 -2.903,-2.039 -4.44,-3.12 -1.538,-1.082 -3.167,-2.206 -3.619,-2.497 -0.452,-0.292 -1.636,-1.057 -2.631,-1.7 -0.996,-0.644 -2.254,-1.412 -2.797,-1.709 -0.542,-0.296 -2.601,-1.453 -4.575,-2.57 -3.295,-1.865 -10.815,-5.636 -11.239,-5.636 -0.099,0 -0.948,-0.345 -1.887,-0.767 -11.128,-5.004 -22.842,-8.256 -36.288,-10.073 -5.161,-0.698 -24.391,-0.948 -27.589,-0.359 m 27.631,1.297 c 15.817,2.164 28.95,6.227 43.092,13.333 16.909,8.496 30.592,18.619 45.25,33.477 l 6.764,6.855 6.065,2.16 c 3.336,1.188 6.954,2.504 8.04,2.925 1.085,0.421 3.38,1.31 5.098,1.976 3.172,1.228 13.743,6.33 16.448,7.939 0.814,0.484 1.776,1.045 2.138,1.246 4.236,2.356 10.4,7.141 14.652,11.373 11.575,11.523 15.513,23.778 13.001,40.459 -0.488,3.24 -0.254,4.277 0.965,4.277 1.79,0 1.776,2.152 -0.038,5.711 -3.201,6.282 -6.958,9.069 -13.618,10.102 -3.055,0.474 -3.07,0.457 -3.158,-3.888 -0.167,-8.222 -4.422,-20.888 -7.414,-22.067 -0.153,-0.06 -0.278,-0.282 -0.278,-0.494 -10e-4,-0.425 -3.777,-4.448 -5.616,-5.982 -11.434,-9.541 -27.577,-11.547 -40.904,-5.084 -2.095,1.016 -2.166,1.057 -5.179,3.033 -9.831,6.446 -15.524,17.666 -16.149,31.827 l -0.08,1.81 -2.96,0.203 c -11.568,0.795 -65.873,0.592 -102.632,-0.385 -14.445,-0.383 -13.869,-0.263 -13.495,-2.812 1.34,-9.132 -5.328,-23.447 -13.937,-29.918 -22.991,-17.282 -54.564,-3.899 -58.245,24.688 -0.516,4.004 -0.422,3.94 -5.117,3.481 -4.25,-0.415 -11.802,-1.518 -15.949,-2.33 -0.815,-0.16 -3.257,-0.608 -5.428,-0.996 -6.167,-1.102 -6.478,-1.489 -6.683,-8.314 -0.196,-6.529 0.325,-8.076 2.813,-8.35 0.668,-0.074 1.261,-0.18 1.317,-0.236 0.098,-0.099 1.277,-7.667 1.568,-10.064 0.169,-1.392 0.663,-3.937 1.133,-5.839 0.802,-3.245 0.978,-3.931 1.329,-5.181 0.203,-0.724 0.512,-1.908 0.686,-2.632 0.173,-0.723 0.451,-1.612 0.615,-1.973 0.165,-0.362 0.551,-1.472 0.857,-2.467 0.566,-1.837 1.487,-4.296 2.279,-6.086 0.24,-0.543 0.763,-1.727 1.161,-2.632 2.872,-6.525 6.63,-13.421 10.047,-18.44 1.945,-2.856 5.483,-7.821 5.73,-8.04 0.101,-0.09 0.606,-0.682 1.121,-1.316 3.833,-4.714 12.193,-13.138 16.652,-16.779 0.995,-0.812 1.883,-1.561 1.974,-1.664 0.09,-0.102 1.052,-0.842 2.138,-1.644 1.085,-0.802 2.263,-1.721 2.618,-2.041 1.13,-1.02 10.071,-6.85 13.994,-9.124 12.984,-7.528 25.446,-12.768 40.296,-16.942 13.215,-3.715 33.165,-5.053 47.039,-3.155 m 65.845,54.865 c -0.277,0.871 -0.604,2.657 -0.725,3.97 -0.123,1.338 -0.4,2.495 -0.63,2.632 -0.606,0.361 -0.927,1.969 -0.427,2.139 0.285,0.096 0.411,0.988 0.411,2.905 v 2.766 l 2.631,0.189 c 3.816,0.275 10.051,-0.243 11.751,-0.975 4.641,-2.001 6.205,-3.381 6.714,-5.93 1.008,-5.039 -9.844,-10.582 -16.699,-8.528 -1.088,0.326 -1.36,0.299 -1.896,-0.186 -0.603,-0.545 -0.643,-0.509 -1.13,1.018 m -118.229,79.544 c 0.004,0.723 0.071,0.981 0.15,0.571 0.078,-0.409 0.075,-1.001 -0.007,-1.315 -0.082,-0.315 -0.147,0.02 -0.143,0.744 m 195.427,3.782 c 0,1.538 0.056,2.167 0.126,1.399 0.069,-0.769 0.069,-2.028 0,-2.797 -0.07,-0.768 -0.126,-0.139 -0.126,1.398 m -72.044,0 c 0,1.357 0.058,1.912 0.129,1.234 0.071,-0.678 0.071,-1.789 0,-2.467 -0.071,-0.679 -0.129,-0.123 -0.129,1.233 m 35.333,36.417 c 0.407,0.078 1.074,0.078 1.481,0 0.407,-0.079 0.074,-0.143 -0.741,-0.143 -0.814,0 -1.147,0.064 -0.74,0.143"
       stroke="none"
       fill="#f6e095"
       fill-rule="evenodd" />
    <path
       id="path5"
       d="m 182.147,100.895 c 0.584,0.073 1.62,0.074 2.303,0.003 0.682,-0.071 0.205,-0.131 -1.062,-0.132 -1.266,-0.002 -1.825,0.057 -1.241,0.129 m -6.391,14.237 c 0,0.995 0.062,1.402 0.138,0.904 0.075,-0.497 0.075,-1.311 0,-1.809 -0.076,-0.498 -0.138,-0.09 -0.138,0.905 m 5.906,-0.165 c 0.004,0.724 0.071,0.981 0.15,0.572 0.078,-0.409 0.075,-1.001 -0.007,-1.316 -0.082,-0.314 -0.147,0.02 -0.143,0.744 m -61.123,3.536 -0.967,1.069 1.069,-0.966 c 0.997,-0.9 1.221,-1.172 0.967,-1.172 -0.057,0 -0.538,0.481 -1.069,1.069 m 55.577,9.129 c 0,2.442 0.051,3.441 0.115,2.22 0.063,-1.221 0.063,-3.22 0,-4.441 -0.064,-1.221 -0.115,-0.222 -0.115,2.221 m 6.903,8.552 c 0,2.081 0.054,2.932 0.119,1.892 0.065,-1.041 0.065,-2.743 0,-3.783 -0.065,-1.041 -0.119,-0.189 -0.119,1.891 m -22.555,5.181 c 2.771,0.055 7.211,0.055 9.869,-0.001 2.657,-0.055 0.391,-0.1 -5.037,-0.1 -5.428,0 -7.602,0.045 -4.832,0.101 m 24.491,-0.011 c 0.5,0.076 1.24,0.074 1.645,-0.004 0.405,-0.078 -0.005,-0.14 -0.909,-0.137 -0.905,0.002 -1.236,0.066 -0.736,0.141 m 9.206,0 c 0.498,0.075 1.312,0.075 1.809,0 0.498,-0.075 0.091,-0.137 -0.904,-0.137 -0.995,0 -1.402,0.062 -0.905,0.137 m 19.222,0.011 c 3.471,0.053 9.244,0.053 12.829,0 3.585,-0.053 0.745,-0.097 -6.311,-0.097 -7.056,0 -9.989,0.043 -6.518,0.097 m 34.086,-0.001 c 2.136,0.058 5.541,0.057 7.566,0 2.025,-0.058 0.278,-0.105 -3.884,-0.105 -4.161,0.001 -5.818,0.048 -3.682,0.105 m -139.982,0.645 c 0.41,0.079 1.002,0.076 1.316,-0.007 0.315,-0.082 -0.02,-0.146 -0.744,-0.143 -0.723,0.004 -0.981,0.071 -0.572,0.15 m 180.1,72.701 c 0.5,0.075 1.24,0.073 1.644,-0.005 0.405,-0.078 -0.004,-0.14 -0.909,-0.137 -0.904,0.002 -1.235,0.066 -0.735,0.142"
       stroke="none"
       fill="#748288"
       fill-rule="evenodd" />
    <path
       id="path6"
       d="m 177.542,95.961 c 0.584,0.073 1.62,0.074 2.303,0.003 0.682,-0.071 0.204,-0.131 -1.062,-0.132 -1.267,-0.002 -1.825,0.056 -1.241,0.129 m 11.849,0.001 c 0.588,0.073 1.551,0.073 2.139,0 0.588,-0.073 0.107,-0.133 -1.069,-0.133 -1.176,0 -1.658,0.06 -1.07,0.133 m -18.092,0.323 c 0.407,0.078 1.074,0.078 1.481,0 0.407,-0.079 0.074,-0.143 -0.741,-0.143 -0.814,0 -1.147,0.064 -0.74,0.143 m 24.178,-0.006 c 0.317,0.083 0.835,0.083 1.151,0 0.317,-0.082 0.058,-0.15 -0.575,-0.15 -0.634,0 -0.893,0.068 -0.576,0.15 m -32.566,0.658 c 0.317,0.083 0.835,0.083 1.152,0 0.316,-0.082 0.057,-0.15 -0.576,-0.15 -0.633,0 -0.892,0.068 -0.576,0.15 m 6.99,4.051 c -1.594,0.187 -1.278,0.225 1.645,0.197 l 3.618,-0.034 0.201,1.974 0.2,1.974 -0.036,-2.138 -0.036,-2.139 -1.809,-0.032 c -0.995,-0.018 -2.697,0.071 -3.783,0.198 m 10.485,0.152 c -0.102,0.266 -0.109,0.673 -0.015,0.905 0.093,0.232 0.181,0.101 0.195,-0.291 0.014,-0.392 0.211,-0.787 0.437,-0.878 0.322,-0.13 0.32,-0.172 -0.01,-0.192 -0.232,-0.014 -0.505,0.191 -0.607,0.456 m 6.548,-0.24 c 0.865,0.068 2.197,0.067 2.961,-0.002 0.763,-0.069 0.056,-0.124 -1.573,-0.123 -1.628,10e-4 -2.253,0.057 -1.388,0.125 m 5.254,0.322 c 0.497,0.076 1.311,0.076 1.809,0 0.497,-0.075 0.09,-0.137 -0.905,-0.137 -0.995,0 -1.402,0.062 -0.904,0.137 m -29.109,0.326 c 0.41,0.079 1.002,0.076 1.316,-0.006 0.315,-0.083 -0.02,-0.147 -0.744,-0.143 -0.723,0.003 -0.981,0.071 -0.572,0.149 m 34.043,-0.005 c 0.316,0.082 0.834,0.082 1.151,0 0.317,-0.083 0.058,-0.151 -0.576,-0.151 -0.633,0 -0.892,0.068 -0.575,0.151 m -38.646,0.34 c 0.592,0.073 1.48,0.072 1.974,-0.003 0.494,-0.075 0.011,-0.135 -1.075,-0.133 -1.086,0.002 -1.49,0.063 -0.899,0.136 m 41.446,-0.006 c 0.409,0.079 1.001,0.076 1.315,-0.006 0.315,-0.083 -0.02,-0.147 -0.744,-0.143 -0.723,0.003 -0.981,0.071 -0.571,0.149 m -45.07,0.329 c 0.407,0.078 1.073,0.078 1.48,0 0.407,-0.079 0.074,-0.143 -0.74,-0.143 -0.814,0 -1.147,0.064 -0.74,0.143 m -3.778,0.333 c 0.5,0.075 1.24,0.073 1.644,-0.005 0.405,-0.078 -0.004,-0.14 -0.909,-0.137 -0.904,0.002 -1.235,0.066 -0.735,0.142 m -5.268,0.648 c 0.317,0.083 0.835,0.083 1.151,0 0.317,-0.082 0.058,-0.15 -0.575,-0.15 -0.634,0 -0.893,0.068 -0.576,0.15 m 34.869,1.254 c 0.004,0.723 0.071,0.981 0.15,0.572 0.078,-0.41 0.075,-1.002 -0.007,-1.316 -0.082,-0.315 -0.147,0.02 -0.143,0.744 m -39.063,-0.494 c -0.838,0.361 0.026,0.361 1.151,0 0.661,-0.211 0.694,-0.265 0.165,-0.273 -0.362,-0.005 -0.954,0.118 -1.316,0.273 m 39.403,3.454 c 0.003,0.905 0.066,1.236 0.142,0.736 0.076,-0.5 0.074,-1.24 -0.004,-1.645 -0.078,-0.404 -0.14,0.005 -0.138,0.909 m -48.878,0.486 c -0.85,0.539 -1.545,1.051 -1.545,1.138 0,0.087 0.74,-0.302 1.645,-0.864 1.451,-0.902 1.884,-1.253 1.545,-1.253 -0.056,0 -0.796,0.441 -1.645,0.979 m 43.643,2.31 c 0,1.9 0.054,2.677 0.12,1.727 0.067,-0.949 0.067,-2.504 0,-3.454 -0.066,-0.949 -0.12,-0.172 -0.12,1.727 m -54.244,1.069 -1.964,2.056 2.056,-1.963 c 1.91,-1.824 2.207,-2.148 1.964,-2.148 -0.051,0 -0.976,0.925 -2.056,2.055 m 7.219,-0.88 -1.288,1.175 1.398,-1.066 c 1.278,-0.974 1.589,-1.284 1.288,-1.284 -0.06,0 -0.689,0.528 -1.398,1.175 m 98.246,-1.05 c 0.335,0.308 4.907,2.497 4.907,2.35 0,-0.184 -4.459,-2.475 -4.816,-2.475 -0.126,0 -0.166,0.056 -0.091,0.125 m -103.323,5.713 -3.448,3.537 3.536,-3.449 c 1.945,-1.896 3.537,-3.487 3.537,-3.536 0,-0.237 -0.422,0.164 -3.625,3.448 m 57.671,-1.891 c 0,0.995 0.061,1.402 0.137,0.905 0.075,-0.498 0.075,-1.312 0,-1.81 -0.076,-0.497 -0.137,-0.09 -0.137,0.905 m 51.052,-1.077 c 0.181,0.172 0.921,0.646 1.645,1.053 0.724,0.406 1.02,0.492 0.658,0.192 -0.735,-0.611 -2.819,-1.738 -2.303,-1.245 m 4.277,2.62 c 0.646,0.637 4.44,3.426 4.44,3.265 0,-0.09 -0.851,-0.813 -1.891,-1.606 -1.908,-1.454 -3.185,-2.285 -2.549,-1.659 m -60.566,4.871 c 0.001,2.171 0.054,3.017 0.119,1.879 0.064,-1.138 0.064,-2.914 -0.001,-3.947 -0.066,-1.034 -0.118,-0.103 -0.118,2.068 m 5.575,-1.315 c 10e-4,1.266 0.061,1.744 0.132,1.061 0.071,-0.682 0.07,-1.718 -0.003,-2.302 -0.072,-0.584 -0.131,-0.026 -0.129,1.241 m 70.616,1.644 c 1.711,1.719 3.186,3.125 3.276,3.125 0.091,0 -1.236,-1.406 -2.947,-3.125 -1.712,-1.718 -3.186,-3.125 -3.277,-3.125 -0.09,0 1.236,1.407 2.948,3.125 m -10.057,-0.907 c 0.529,0.586 1.035,0.992 1.124,0.904 0.088,-0.089 0.099,-0.198 0.024,-0.243 -0.076,-0.046 -0.581,-0.452 -1.124,-0.904 l -0.987,-0.821 0.963,1.064 m -123.639,1.329 c -1.16,1.39 -1.183,1.449 -0.219,0.565 0.913,-0.837 1.915,-2.163 1.607,-2.127 -0.051,0.006 -0.676,0.709 -1.388,1.562 m 127.367,1.963 c 1.152,1.131 2.196,2.055 2.32,2.053 0.124,-0.002 -0.44,-0.622 -1.255,-1.376 -2.58,-2.393 -3.24,-2.812 -1.065,-0.677 m -63.977,0.411 c 0,0.815 0.065,1.148 0.143,0.741 0.078,-0.408 0.078,-1.074 0,-1.481 -0.078,-0.407 -0.143,-0.074 -0.143,0.74 m -68.426,3.701 c -2.112,2.607 -4.04,5.209 -3.474,4.688 0.577,-0.532 5.711,-7.073 5.552,-7.073 -0.081,0 -1.015,1.073 -2.078,2.385 m 136.539,0.165 c 3.474,3.763 4.544,4.8 2.46,2.384 -1.17,-1.357 -2.476,-2.874 -2.901,-3.371 -0.426,-0.498 -0.894,-0.905 -1.039,-0.905 -0.146,0 0.52,0.851 1.48,1.892 m -67.771,0.246 c 0.002,1.086 0.063,1.49 0.136,0.899 0.073,-0.591 0.072,-1.479 -0.003,-1.974 -0.075,-0.494 -0.135,-0.01 -0.133,1.075 m 79.057,3.125 c 0.206,0.272 0.448,0.79 0.537,1.152 0.154,0.624 0.164,0.622 0.2,-0.042 0.021,-0.385 -0.221,-0.903 -0.538,-1.152 -0.5,-0.392 -0.526,-0.387 -0.199,0.042 m -78.732,1.645 c 0,0.995 0.062,1.402 0.137,0.905 0.076,-0.498 0.076,-1.312 0,-1.81 -0.075,-0.497 -0.137,-0.09 -0.137,0.905 m 78.685,1.316 c -0.125,0.568 -0.159,1.102 -0.075,1.186 0.084,0.084 0.247,-0.32 0.363,-0.898 0.274,-1.372 0.008,-1.637 -0.288,-0.288 m -153.234,0.904 c -1.024,1.631 -1.591,2.714 -1.422,2.714 0.076,0 0.667,-0.888 1.314,-1.974 1.279,-2.147 1.366,-2.743 0.108,-0.74 m 152.817,2.056 c 0,0.633 0.067,0.893 0.15,0.576 0.083,-0.317 0.083,-0.835 0,-1.151 -0.083,-0.317 -0.15,-0.058 -0.15,0.575 m -84.527,0.658 c 0,0.814 0.065,1.147 0.143,0.74 0.078,-0.407 0.078,-1.073 0,-1.48 -0.078,-0.407 -0.143,-0.074 -0.143,0.74 m 81.963,-0.221 c 0.506,0.665 0.987,1.208 1.068,1.208 0.229,0 -1.195,-1.924 -1.616,-2.185 -0.206,-0.126 0.041,0.313 0.548,0.977 m 2.196,1.659 c -0.032,0.532 -0.117,0.557 -0.613,0.183 -0.546,-0.411 -0.547,-0.402 -0.008,0.187 0.643,0.703 1.047,0.513 0.815,-0.384 -0.147,-0.571 -0.157,-0.57 -0.194,0.014 m -83.864,1.583 c -0.051,1.411 -0.131,1.552 -0.96,1.678 l -0.904,0.137 0.914,0.049 c 1.075,0.058 1.316,-0.395 1.136,-2.136 -0.126,-1.222 -0.133,-1.212 -0.186,0.272 m -72.391,0.781 c -1.071,1.815 -0.939,2.128 0.872,2.062 l 1.562,-0.058 -1.398,-0.126 c -1.601,-0.144 -1.651,-0.278 -0.707,-1.878 0.379,-0.644 0.616,-1.17 0.526,-1.17 -0.091,0 -0.475,0.526 -0.855,1.17 m 78.28,-0.293 c -0.05,0.829 0.409,1.424 1.081,1.402 0.66,-0.021 0.665,-0.039 0.072,-0.271 -0.349,-0.136 -0.745,-0.533 -0.882,-0.881 -0.136,-0.349 -0.258,-0.461 -0.271,-0.25 m 6.156,1.339 c 0.955,0.067 2.436,0.066 3.289,-10e-4 0.853,-0.068 0.071,-0.122 -1.738,-0.121 -1.809,0 -2.507,0.056 -1.551,0.122 m 9.528,0 c 0.95,0.066 2.504,0.066 3.454,0 0.95,-0.067 0.173,-0.121 -1.727,-0.121 -1.9,0 -2.677,0.054 -1.727,0.121 m 6.256,-0.004 c 0.591,0.073 1.479,0.072 1.974,-0.004 0.494,-0.075 0.01,-0.134 -1.075,-0.133 -1.086,0.002 -1.49,0.064 -0.899,0.137 m 54.024,-0.111 c 0,0.069 0.436,0.191 0.969,0.269 0.533,0.078 0.895,0.021 0.803,-0.127 -0.163,-0.264 -1.772,-0.393 -1.772,-0.142 m -128.187,0.448 c 3.042,0.054 7.927,0.054 10.856,-10e-4 2.928,-0.054 0.439,-0.099 -5.531,-0.098 -5.971,0 -8.367,0.044 -5.325,0.099 m -17.948,0.328 c 1.854,0.058 4.889,0.058 6.743,0 1.855,-0.059 0.337,-0.107 -3.372,-0.107 -3.708,0 -5.226,0.048 -3.371,0.107 m 147.626,2.232 c -0.128,1.199 -0.164,2.248 -0.08,2.333 0.084,0.084 0.259,-0.827 0.387,-2.026 0.128,-1.198 0.164,-2.248 0.08,-2.332 -0.085,-0.084 -0.259,0.827 -0.387,2.025 m -115.06,2.703 c 6.377,0.05 16.813,0.05 23.19,0 6.378,-0.05 1.16,-0.091 -11.595,-0.091 -12.755,0 -17.973,0.041 -11.595,0.091 m 40.789,-0.001 c 2.035,0.058 5.366,0.058 7.401,0 2.036,-0.058 0.37,-0.105 -3.7,-0.105 -4.071,0 -5.736,0.047 -3.701,0.105 m -80.921,0.316 c 0.407,0.078 1.073,0.078 1.48,0 0.407,-0.079 0.074,-0.143 -0.74,-0.143 -0.814,0 -1.147,0.064 -0.74,0.143 m 17.27,0.009 c 0.859,0.068 2.265,0.068 3.125,0 0.859,-0.067 0.156,-0.123 -1.563,-0.123 -1.719,0 -2.422,0.056 -1.562,0.123 m 123.026,0.004 c 2.669,0.056 7.035,0.056 9.704,0 2.669,-0.055 0.485,-0.1 -4.852,-0.1 -5.337,0 -7.521,0.045 -4.852,0.1 m -133.053,0.322 c 0.591,0.073 1.479,0.072 1.973,-0.004 0.495,-0.075 0.011,-0.134 -1.075,-0.133 -1.085,0.002 -1.49,0.064 -0.898,0.137 m 185.767,32.985 c -1.108,0.198 -1.16,0.239 -0.329,0.258 0.543,0.012 1.653,-0.096 2.467,-0.241 1.328,-0.236 1.362,-0.263 0.329,-0.258 -0.633,0.003 -1.743,0.112 -2.467,0.241 m 8.717,0.017 c 0.814,0.145 1.924,0.256 2.467,0.246 0.728,-0.012 0.598,-0.085 -0.493,-0.28 -0.815,-0.145 -1.925,-0.256 -2.467,-0.246 -0.728,0.012 -0.599,0.086 0.493,0.28 m -198.931,0.227 c 1.221,0.063 3.22,0.063 4.441,0 1.221,-0.063 0.222,-0.115 -2.221,-0.115 -2.442,0 -3.441,0.052 -2.22,0.115 m -5.657,0.61 c -1.655,0.445 -2.518,0.816 -1.799,0.773 0.758,-0.045 4.831,-1.241 4.249,-1.247 -0.362,-0.004 -1.464,0.209 -2.45,0.474 m 192.417,-0.196 c -0.651,0.209 -0.686,0.263 -0.165,0.263 0.362,0 1.028,-0.118 1.481,-0.263 0.651,-0.209 0.685,-0.263 0.164,-0.263 -0.362,0 -1.028,0.118 -1.48,0.263 m -175.822,0.658 c 0.361,0.155 0.879,0.283 1.151,0.283 0.311,0 0.25,-0.105 -0.165,-0.283 -0.361,-0.156 -0.88,-0.283 -1.151,-0.283 -0.311,0 -0.25,0.105 0.165,0.283 m 171.052,0.969 c -0.724,0.342 -1.168,0.623 -0.987,0.625 0.449,0.003 3.045,-1.212 2.632,-1.232 -0.181,-0.009 -0.921,0.264 -1.645,0.607 m 27.796,0.511 c 0.453,0.259 0.971,0.47 1.152,0.47 0.18,0 -0.042,-0.211 -0.494,-0.47 -0.452,-0.258 -0.97,-0.47 -1.151,-0.47 -0.181,0 0.041,0.212 0.493,0.47 m -194.38,-0.039 c 0.335,0.307 4.249,2.17 4.249,2.022 0,-0.184 -3.801,-2.147 -4.158,-2.147 -0.125,0 -0.167,0.056 -0.091,0.125 m 161.853,1.874 c -4.115,2.554 -8.312,6.353 -10.248,9.276 -0.481,0.727 -0.365,0.646 0.368,-0.256 2.919,-3.585 6.717,-6.779 11.486,-9.656 0.633,-0.382 1.003,-0.688 0.823,-0.681 -0.181,0.008 -1.274,0.601 -2.429,1.317 M 319.079,184 c 0,0.075 1.073,0.765 2.385,1.534 1.311,0.77 3.273,2.132 4.358,3.028 l 1.974,1.629 -1.633,-1.545 c -1.926,-1.823 -7.084,-5.205 -7.084,-4.646 m -228.322,2.567 c -3.565,2.563 -7.159,6.265 -8.986,9.256 -0.908,1.486 -0.493,1.049 1.235,-1.303 1.897,-2.583 4.655,-5.34 7.237,-7.238 2.249,-1.652 2.375,-1.756 2.131,-1.756 -0.094,0 -0.821,0.469 -1.617,1.041 m 37.673,-0.318 c 0.529,0.417 1.787,1.41 2.796,2.207 1.008,0.797 1.484,1.066 1.056,0.597 -0.427,-0.468 -1.685,-1.461 -2.796,-2.206 -1.11,-0.746 -1.586,-1.014 -1.056,-0.598 m 5.123,4.164 c 0,0.134 0.598,0.827 1.329,1.541 0.731,0.714 1.932,2.224 2.67,3.356 0.738,1.132 1.406,2.058 1.486,2.058 0.177,0 -0.045,-0.387 -1.319,-2.302 -1.05,-1.578 -4.166,-5.058 -4.166,-4.653 m 194.408,-0.18 c 0,0.077 0.757,0.936 1.684,1.911 l 1.684,1.77 -1.385,-1.726 c -1.289,-1.605 -1.983,-2.29 -1.983,-1.955 m 4.787,5.984 c 1.816,2.726 2.163,3.117 1.167,1.316 -0.401,-0.724 -1.172,-1.834 -1.714,-2.467 -0.587,-0.685 -0.365,-0.219 0.547,1.151 M 103.59,196.021 c -17.733,6.483 -17.177,31.611 0.823,37.17 14.181,4.38 28.118,-8.733 24.698,-23.239 -2.619,-11.107 -14.903,-17.813 -25.521,-13.931 m 10.911,-0.1 c 12.569,3.22 18.577,17.505 11.908,28.308 -10.691,17.317 -37.218,8.545 -35.244,-11.654 1.118,-11.431 12.372,-19.463 23.336,-16.654 m 186.606,0.82 c -20.127,2.495 -23.869,29.715 -5.167,37.587 9.172,3.86 20.467,-0.447 24.76,-9.442 5.145,-10.779 -0.004,-23.568 -10.933,-27.159 -1.813,-0.596 -2.879,-0.805 -5.82,-1.142 -0.452,-0.052 -1.73,0.019 -2.84,0.156 m -197.598,0.774 c -2.767,1.138 -4.576,2.4 -4.257,2.97 0.54,0.966 8.074,8.397 8.512,8.397 0.452,0 0.819,-8.623 0.501,-11.76 -0.069,-0.68 -2.668,-0.465 -4.756,0.393 m 8.835,-0.393 c -0.234,0.709 -0.496,10.735 -0.294,11.26 0.364,0.95 1.027,0.482 5.217,-3.681 l 4.208,-4.18 -1.17,-1.001 c -2.256,-1.929 -7.587,-3.535 -7.961,-2.398 m -32.081,1.233 c -0.369,0.724 -0.597,1.316 -0.507,1.316 0.091,0 0.467,-0.592 0.836,-1.316 0.369,-0.723 0.597,-1.316 0.507,-1.316 -0.091,0 -0.467,0.593 -0.836,1.316 m 27.632,4.277 c 0,3.075 -0.114,5.592 -0.252,5.592 -1.036,0 -8.094,-7.962 -7.479,-8.436 1.472,-1.133 5.351,-2.68 6.826,-2.723 l 0.905,-0.026 v 5.593 m 7.285,-5.121 c 1.722,0.522 3.288,1.277 4.671,2.249 l 0.937,0.659 -3.892,3.903 c -2.141,2.146 -4.006,3.902 -4.144,3.902 -0.139,0 -0.252,-2.517 -0.252,-5.592 0,-6.312 -0.17,-5.987 2.68,-5.121 m 193.373,0.316 c 14.011,4.321 18.384,21.632 8.06,31.905 -11.937,11.879 -32.238,3.41 -32.238,-13.449 0,-12.972 12.073,-22.188 24.178,-18.456 m -168.851,1.018 c 0.301,0.631 0.606,1.088 0.677,1.017 0.151,-0.151 -0.848,-2.165 -1.073,-2.165 -0.083,0 0.096,0.517 0.396,1.148 m 158.982,-0.349 c -3.087,0.856 -6.579,2.762 -6.579,3.591 0,0.537 8.281,9.098 8.8,9.098 0.502,-0.001 0.468,0.374 0.572,-6.415 0.109,-7.078 0.109,-7.079 -2.793,-6.274 m 6.981,-0.082 c -0.541,0.541 -0.574,12.296 -0.035,12.629 0.214,0.132 2.236,-1.649 4.852,-4.275 l 4.485,-4.501 -0.927,-0.752 c -1.193,-0.969 -4.708,-2.69 -5.981,-2.929 -0.543,-0.101 -1.213,-0.272 -1.489,-0.379 -0.277,-0.107 -0.684,-0.014 -0.905,0.207 m -34.629,1.948 c -0.557,1.104 -0.934,2.087 -0.836,2.184 0.097,0.097 0.323,-0.209 0.502,-0.68 0.179,-0.471 0.63,-1.454 1.003,-2.184 0.372,-0.73 0.602,-1.327 0.51,-1.327 -0.091,0 -0.622,0.903 -1.179,2.007 m 29.951,4.079 c 0,4.093 -0.109,5.756 -0.376,5.756 -0.465,0 -7.824,-7.594 -7.838,-8.089 -0.02,-0.735 5.782,-3.385 7.474,-3.412 0.74,-0.012 0.74,-0.009 0.74,5.745 m 9.704,-4.244 c 4.152,2.006 4.19,1.523 -0.482,6.206 -2.243,2.249 -4.2,4.013 -4.348,3.922 -0.322,-0.199 -0.366,-11.105 -0.046,-11.425 0.402,-0.402 2.53,0.164 4.876,1.297 m -231.867,1.112 c -0.742,1.855 -0.628,2.131 0.153,0.37 0.353,-0.795 0.583,-1.505 0.512,-1.576 -0.072,-0.072 -0.371,0.471 -0.665,1.206 m 61.843,-0.487 c 0.601,1.835 1.764,4.478 1.592,3.619 -0.108,-0.543 -0.559,-1.727 -1.002,-2.632 -0.443,-0.904 -0.709,-1.348 -0.59,-0.987 m -45.7,3.537 c -1.585,2.145 -3.328,7.127 -2.709,7.745 0.437,0.438 12.114,0.261 12.265,-0.186 0.162,-0.48 -7.723,-8.629 -8.351,-8.629 -0.228,0 -0.77,0.482 -1.205,1.07 m 24.546,3.359 c -5.266,5.131 -5.358,4.946 2.46,4.946 h 5.823 l -0.076,-1.78 c -0.114,-2.652 -2.384,-7.266 -3.575,-7.266 -0.233,0 -2.318,1.845 -4.632,4.1 m -19.185,0.04 c 3.941,4.021 4.057,4.335 1.562,4.231 -0.768,-0.032 -3.136,-0.078 -5.262,-0.102 -4.43,-0.051 -4.391,-0.014 -3.318,-3.194 0.517,-1.531 0.709,-1.922 1.928,-3.923 0.775,-1.273 1.101,-1.082 5.09,2.988 m 25.181,-2.005 c 0.982,1.676 2.198,5.388 1.968,6.007 -0.115,0.306 -1.542,0.411 -5.592,0.411 -6.595,0 -6.498,0.219 -1.904,-4.319 4.066,-4.018 4.342,-4.123 5.528,-2.099 m 143.429,0.027 c -0.121,0.482 -0.157,0.94 -0.079,1.018 0.077,0.077 0.24,-0.254 0.361,-0.736 0.121,-0.482 0.156,-0.94 0.079,-1.017 -0.078,-0.078 -0.24,0.253 -0.361,0.735 m 19.286,0.059 c -1.786,2.54 -3.349,7.252 -2.735,8.246 0.431,0.697 11.996,0.71 12.135,0.014 0.105,-0.529 -7.03,-8.236 -8.208,-8.867 -0.424,-0.227 -0.706,-0.083 -1.192,0.607 m -211.045,0.452 c -0.274,1.371 -0.008,1.637 0.288,0.288 0.125,-0.569 0.159,-1.103 0.075,-1.186 -0.084,-0.084 -0.247,0.32 -0.363,0.898 m 235.775,3.303 c -2.682,2.662 -4.402,4.612 -4.264,4.835 0.309,0.5 12.23,0.525 12.539,0.026 0.325,-0.527 -0.836,-4.884 -1.749,-6.56 -1.773,-3.257 -1.447,-3.342 -6.526,1.699 m -19.587,0.17 c 2.02,2.114 3.672,3.964 3.672,4.112 0,0.148 -2.516,0.269 -5.592,0.269 h -5.592 v -0.936 c 0,-2.157 2.397,-7.288 3.405,-7.288 0.239,0 2.087,1.729 4.107,3.843 m 25.674,-1.599 c 1.047,2.093 1.848,5.076 1.562,5.819 -0.155,0.405 -1.027,0.484 -5.05,0.457 -7.256,-0.049 -7.103,0.257 -2.268,-4.522 4.514,-4.463 4.416,-4.433 5.756,-1.754 m 18.68,-0.764 c 0.319,1.996 0.793,3.267 0.553,1.481 -0.11,-0.815 -0.327,-1.777 -0.482,-2.139 -0.181,-0.424 -0.207,-0.19 -0.071,0.658 m -69.407,0.561 c -0.102,0.415 -0.263,1.569 -0.359,2.564 -0.148,1.546 -0.105,1.452 0.3,-0.641 0.439,-2.273 0.481,-3.64 0.059,-1.923 M 76.468,210.02 c -0.128,1.019 -0.161,1.923 -0.074,2.01 0.087,0.087 0.257,-0.681 0.377,-1.706 0.121,-1.025 0.154,-1.93 0.074,-2.01 -0.08,-0.08 -0.25,0.688 -0.377,1.706 m 66.87,1 c 0.096,1.266 0.228,2.364 0.293,2.439 0.229,0.265 0.051,-3.106 -0.207,-3.92 -0.152,-0.478 -0.188,0.142 -0.086,1.481 m 195.243,0.987 c 0.002,0.904 0.066,1.235 0.142,0.735 0.075,-0.5 0.073,-1.24 -0.005,-1.645 -0.078,-0.404 -0.14,0.005 -0.137,0.91 m -71.024,3.947 c 10e-4,1.99 0.055,2.762 0.121,1.715 0.065,-1.047 0.065,-2.675 -0.002,-3.619 -0.066,-0.943 -0.119,-0.086 -0.119,1.904 m 71.353,0 c 0.002,0.905 0.066,1.236 0.142,0.736 0.075,-0.5 0.073,-1.241 -0.005,-1.645 -0.078,-0.405 -0.14,0.004 -0.137,0.909 m -195.588,1.288 c -0.127,1.432 -0.17,2.665 -0.095,2.74 0.203,0.202 0.61,-3.999 0.458,-4.721 -0.072,-0.342 -0.235,0.549 -0.363,1.981 m -50.806,-0.91 c -1.328,0.549 1.812,9.025 3.33,8.988 0.639,-0.016 8.84,-8.136 8.686,-8.6 -0.146,-0.44 -11.036,-0.792 -12.016,-0.388 m 23.317,0.086 c -0.829,0.517 7.361,9.382 8.472,9.169 1.281,-0.244 4.323,-7.998 3.45,-8.793 -0.406,-0.37 -11.376,-0.716 -11.922,-0.376 m -14.046,0.317 2.28,0.206 -3.908,3.865 c -2.149,2.126 -4.098,3.865 -4.33,3.865 -0.998,0 -3.694,-6.973 -3.014,-7.792 0.385,-0.464 4.667,-0.533 8.972,-0.144 m -25.394,0.864 c 0,0.542 0.114,1.431 0.252,1.973 0.348,1.368 0.363,0.022 0.019,-1.644 -0.229,-1.107 -0.272,-1.159 -0.271,-0.329 m 51.095,-0.393 c 0.401,1.044 -2.557,7.794 -3.415,7.794 -0.31,0 -7.955,-7.696 -7.955,-8.007 0,-0.452 11.196,-0.242 11.37,0.213 m 158.258,1.105 c -1.097,1.097 2.136,9.256 3.539,8.932 0.689,-0.159 8.412,-7.751 8.412,-8.27 0,-0.666 -11.32,-1.293 -11.951,-0.662 m 52.839,1.426 c 0,0.995 0.062,1.402 0.137,0.904 0.076,-0.497 0.076,-1.311 0,-1.809 -0.075,-0.497 -0.137,-0.09 -0.137,0.905 m -29.883,-0.963 c -0.242,0.392 -0.078,0.585 4.652,5.445 3.866,3.972 3.731,3.929 5.229,1.673 2.029,-3.057 3.046,-6.85 1.949,-7.271 -0.947,-0.364 -11.596,-0.226 -11.83,0.153 m -11.663,0.254 c 0,0.53 -7.273,7.452 -7.829,7.452 -0.7,0 -2.909,-4.344 -3.22,-6.332 l -0.219,-1.398 h 5.634 c 3.099,0 5.634,0.125 5.634,0.278 m 23.457,0.355 c 0.606,0.594 -2.531,7.591 -3.403,7.591 -0.364,0 -7.863,-7.661 -7.722,-7.889 0.168,-0.275 10.833,0.011 11.125,0.298 m -217.492,4.561 c -5.038,4.896 -5.04,4.94 -0.326,7.118 5.222,2.413 5.451,2.194 5.522,-5.278 0.069,-7.145 0.212,-7.095 -5.196,-1.84 m 8.838,2.172 c 0,5.008 0.083,6.082 0.482,6.235 1.534,0.589 8.729,-2.533 8.729,-3.788 0,-0.609 -7.993,-8.497 -8.61,-8.497 -0.56,0 -0.601,0.409 -0.601,6.05 m 156.139,-4.405 c 0.107,0.995 0.321,2.105 0.476,2.467 0.318,0.741 0.073,-1.219 -0.39,-3.125 -0.212,-0.871 -0.233,-0.711 -0.086,0.658 m -125.178,-0.823 c -0.027,0.362 -0.125,1.028 -0.218,1.48 l -0.169,0.823 0.352,-0.807 c 0.194,-0.444 0.292,-1.11 0.219,-1.48 -0.131,-0.656 -0.136,-0.657 -0.184,-0.016 m -35.237,5.428 c 0,6.406 0.207,6.08 -3.13,4.932 -1.992,-0.685 -4.583,-2.069 -4.933,-2.635 -0.191,-0.309 7.296,-7.857 7.816,-7.879 0.136,-0.006 0.247,2.506 0.247,5.582 m 9.18,-1.84 c 2.666,2.674 3.683,3.906 3.538,4.286 -0.476,1.24 -7.065,3.667 -7.843,2.89 -0.352,-0.353 -0.007,-10.928 0.357,-10.928 0.113,0 1.89,1.688 3.948,3.752 M 77.03,221.382 c 0.016,0.854 0.534,2.258 0.546,1.48 0.005,-0.362 -0.118,-0.954 -0.273,-1.316 -0.174,-0.403 -0.279,-0.467 -0.273,-0.164 m 219.042,4.763 c -4.564,4.617 -4.528,4.476 -1.534,5.993 6.425,3.256 6.778,3.037 6.778,-4.2 0,-7.337 0.177,-7.277 -5.244,-1.793 m 9.008,-3.682 c -0.523,1.363 0.032,11.577 0.636,11.693 1.234,0.237 7.22,-2.075 7.848,-3.031 0.515,-0.785 0.13,-1.34 -3.583,-5.15 -3.706,-3.803 -4.556,-4.412 -4.901,-3.512 m -4.281,0.525 c 0.099,0.16 0.084,2.618 -0.034,5.462 l -0.213,5.17 -1.345,-0.213 c -1.538,-0.243 -5.599,-2.029 -6.165,-2.711 -0.304,-0.366 0.362,-1.2 3.372,-4.225 3.773,-3.791 4.056,-4.015 4.385,-3.483 m 9.058,3.568 3.682,3.859 -0.929,0.741 c -1.279,1.02 -5.849,2.731 -6.613,2.477 -0.482,-0.161 -0.593,-10.936 -0.114,-10.936 0.161,0 1.949,1.737 3.974,3.859 M 141.682,225.07 c -0.299,0.937 -0.49,1.758 -0.423,1.825 0.067,0.067 0.374,-0.638 0.682,-1.566 0.308,-0.928 0.499,-1.749 0.423,-1.825 -0.075,-0.075 -0.382,0.63 -0.682,1.566 m 196.024,-0.687 c -0.275,1.371 -0.009,1.637 0.287,0.288 0.125,-0.569 0.159,-1.102 0.075,-1.186 -0.084,-0.084 -0.247,0.32 -0.362,0.898 M 77.643,223.927 c -0.014,0.512 1.673,4.761 1.829,4.605 0.063,-0.062 -0.321,-1.216 -0.852,-2.563 -0.531,-1.347 -0.971,-2.266 -0.977,-2.042 m 191.153,1.402 c 0,0.271 0.127,0.789 0.283,1.151 0.178,0.415 0.283,0.476 0.283,0.165 0,-0.272 -0.128,-0.79 -0.283,-1.152 -0.178,-0.414 -0.283,-0.475 -0.283,-0.164 m 66.997,4.781 c -0.486,1.17 -0.818,2.127 -0.736,2.127 0.228,0 1.813,-3.701 1.711,-3.995 -0.05,-0.142 -0.488,0.699 -0.975,1.868 m -65.727,-0.715 c 0,0.357 1.963,4.158 2.147,4.158 0.091,0 -0.299,-0.926 -0.866,-2.056 -1.074,-2.144 -1.281,-2.483 -1.281,-2.102 m -132.661,4.089 c -1.429,2.092 -5.182,5.976 -7.8,8.072 l -1.151,0.923 1.151,-0.745 c 2.619,-1.694 7.666,-7.134 9.344,-10.073 0.665,-1.165 -0.2,-0.143 -1.544,1.823 m 195.244,2.337 c -0.945,1.429 -2.686,3.576 -3.869,4.77 -1.183,1.195 -2.014,2.172 -1.847,2.172 0.695,0 6.001,-6.403 7.155,-8.635 0.795,-1.535 0.352,-1.014 -1.439,1.693 M 82.921,234.375 c 0.862,1.257 1.947,2.516 1.935,2.246 -0.007,-0.15 -0.546,-0.864 -1.199,-1.588 -0.653,-0.724 -0.984,-1.02 -0.736,-0.658 m 2.276,2.84 c 0,1.285 9.591,7.752 12.829,8.651 0.453,0.125 -0.658,-0.5 -2.467,-1.39 -3.435,-1.69 -6.158,-3.56 -8.799,-6.045 -0.86,-0.809 -1.563,-1.356 -1.563,-1.216 m 190.706,1.765 c 0.559,0.724 1.728,1.982 2.598,2.796 1.212,1.135 1.089,0.942 -0.526,-0.822 -2.893,-3.16 -3.252,-3.502 -2.072,-1.974 m 5.397,5.167 c 0.661,0.596 1.697,1.365 2.303,1.71 1.506,0.858 1.153,0.53 -1.366,-1.268 -1.514,-1.08 -1.788,-1.209 -0.937,-0.442 M 125,244.243 c -0.814,0.436 -1.363,0.8 -1.22,0.808 0.349,0.02 2.865,-1.273 2.865,-1.472 0,-0.218 0.013,-0.224 -1.645,0.664 m 198.532,0.861 c -1.729,1.299 -1.89,1.514 -0.566,0.753 0.934,-0.536 2.401,-1.823 2.003,-1.756 -0.074,0.013 -0.72,0.464 -1.437,1.003 m -201.76,0.515 c -0.78,0.276 -1.359,0.561 -1.287,0.634 0.173,0.172 2.287,-0.537 2.689,-0.903 0.391,-0.355 0.333,-0.344 -1.402,0.269 m -3.351,1.092 c -0.661,0.211 -0.693,0.265 -0.164,0.273 0.361,0.005 0.954,-0.118 1.315,-0.273 0.839,-0.361 -0.026,-0.361 -1.151,0 m -15.954,0.516 c 0.905,0.252 2.015,0.448 2.467,0.436 0.453,-0.011 -0.066,-0.221 -1.151,-0.466 -2.566,-0.578 -3.43,-0.558 -1.316,0.03 m 12.994,0.141 c -1.125,0.237 -1.129,0.243 -0.165,0.263 0.543,0.011 1.283,-0.107 1.645,-0.263 0.791,-0.339 0.134,-0.339 -1.48,0 m -7.143,0.573 c 1.047,0.065 2.675,0.065 3.618,-0.002 0.944,-0.066 0.087,-0.119 -1.903,-0.119 -1.99,0.001 -2.762,0.055 -1.715,0.121 m 208.294,0.939 c -0.905,0.439 -1.275,0.704 -0.823,0.589 0.939,-0.24 3.295,-1.42 2.797,-1.401 -0.181,0.007 -1.07,0.373 -1.974,0.812 m -27.467,-0.031 c 0.452,0.258 0.97,0.47 1.151,0.47 0.181,0 -0.041,-0.212 -0.493,-0.47 -0.453,-0.259 -0.971,-0.47 -1.152,-0.47 -0.181,0 0.041,0.211 0.494,0.47 m 4.112,1.48 c 0.361,0.155 0.88,0.283 1.151,0.283 0.311,0 0.25,-0.105 -0.165,-0.283 -0.361,-0.156 -0.88,-0.283 -1.151,-0.283 -0.311,0 -0.25,0.105 0.165,0.283 m 19.079,0 c -0.415,0.178 -0.476,0.283 -0.165,0.283 0.271,0 0.79,-0.128 1.151,-0.283 0.415,-0.178 0.476,-0.283 0.165,-0.283 -0.272,0 -0.79,0.127 -1.151,0.283 m -11.267,1.231 c 1.221,0.063 3.22,0.063 4.441,0 1.221,-0.064 0.222,-0.115 -2.221,-0.115 -2.442,0 -3.441,0.051 -2.22,0.115"
       stroke="none"
       fill="#78747c"
       fill-rule="evenodd" />
    <path
       id="path7"
       d="m 173.355,95.698 c -1.176,0.105 3.635,0.19 10.691,0.19 7.056,0 11.719,-0.092 10.362,-0.204 -3.067,-0.253 -18.158,-0.243 -21.053,0.014 m -8.717,0.691 c -0.724,0.134 0.313,0.167 2.303,0.073 1.99,-0.094 3.68,-0.224 3.755,-0.29 0.243,-0.211 -4.697,-0.034 -6.058,0.217 m 33.306,-0.098 c 0.588,0.073 1.55,0.073 2.138,0 0.588,-0.073 0.107,-0.133 -1.069,-0.133 -1.176,0 -1.657,0.06 -1.069,0.133 m 3.783,0.317 c 0.317,0.083 0.835,0.083 1.151,0 0.317,-0.082 0.058,-0.15 -0.575,-0.15 -0.634,0 -0.893,0.068 -0.576,0.15 m -44.161,0.431 -1.152,0.243 1.316,0.011 c 0.724,0.006 2.13,-0.102 3.125,-0.24 l 1.809,-0.25 -1.973,-0.003 c -1.086,-0.002 -2.492,0.106 -3.125,0.239 m 46.409,-0.205 c 0.075,0.068 1.025,0.206 2.111,0.307 1.297,0.12 1.635,0.091 0.986,-0.085 -1.014,-0.275 -3.342,-0.442 -3.097,-0.222 m -52.824,0.874 c -0.584,0.155 0.087,0.188 1.645,0.081 1.447,-0.099 2.693,-0.234 2.769,-0.3 0.257,-0.226 -3.425,-0.043 -4.414,0.219 m 57.1,-0.221 c 0.075,0.065 0.803,0.216 1.617,0.334 1.035,0.15 1.332,0.116 0.987,-0.114 -0.443,-0.295 -2.934,-0.506 -2.604,-0.22 m -61.705,0.868 c -1.368,0.348 -0.022,0.364 1.645,0.019 1.106,-0.229 1.158,-0.272 0.329,-0.271 -0.543,0.001 -1.431,0.114 -1.974,0.252 m 66.283,0 c 1.125,0.36 1.989,0.36 1.151,0 -0.362,-0.155 -0.954,-0.278 -1.316,-0.273 -0.528,0.008 -0.496,0.062 0.165,0.273 m -70.066,0.658 c -1.105,0.354 0.089,0.354 1.48,0 0.887,-0.225 0.904,-0.252 0.165,-0.257 -0.452,-0.003 -1.193,0.112 -1.645,0.257 m -2.467,0.658 c -0.415,0.178 -0.475,0.283 -0.164,0.283 0.271,0 0.789,-0.127 1.151,-0.283 0.415,-0.178 0.475,-0.283 0.164,-0.283 -0.271,0 -0.789,0.128 -1.151,0.283 m 77.632,0 c 0.361,0.156 0.88,0.283 1.151,0.283 0.311,0 0.25,-0.105 -0.165,-0.283 -0.361,-0.155 -0.879,-0.283 -1.151,-0.283 -0.311,0 -0.25,0.105 0.165,0.283 m -81.25,1.101 c -1.086,0.406 -2.27,0.928 -2.632,1.159 l -0.658,0.421 0.658,-0.235 c 2.298,-0.822 4.946,-1.855 5.067,-1.975 0.295,-0.296 -0.529,-0.083 -2.435,0.63 m 84.21,-0.316 c 0.543,0.247 1.357,0.54 1.809,0.651 0.661,0.162 0.628,0.114 -0.164,-0.247 -0.543,-0.248 -1.357,-0.541 -1.809,-0.651 -0.661,-0.163 -0.628,-0.114 0.164,0.247 m 3.454,1.133 c 0.271,0.168 0.864,0.404 1.316,0.525 0.571,0.153 0.672,0.127 0.329,-0.085 -0.272,-0.167 -0.864,-0.404 -1.316,-0.525 -0.571,-0.153 -0.672,-0.127 -0.329,0.085 m 2.347,0.868 c 0.276,0.276 2.587,1.175 2.587,1.006 0,-0.091 -0.536,-0.389 -1.191,-0.663 -1.214,-0.507 -1.672,-0.62 -1.396,-0.343 m -96.182,1.319 c -4.892,2.949 -12.342,9.949 -16.657,15.649 -2.402,3.173 -1.979,2.899 0.788,-0.511 5.244,-6.462 11.624,-12.395 16.053,-14.929 1.031,-0.59 1.875,-1.136 1.875,-1.213 0,-0.229 -0.081,-0.189 -2.059,1.004 m 99.126,-0.031 c 0.355,0.328 6.346,3.188 6.058,2.892 -0.365,-0.374 -5.584,-3.019 -5.959,-3.019 -0.13,0 -0.175,0.057 -0.099,0.127 m 8.196,4.25 c 0,0.065 0.777,0.615 1.727,1.221 2.127,1.36 5.016,3.541 7.73,5.838 1.131,0.956 2.048,1.624 2.037,1.484 -0.054,-0.744 -11.494,-9.246 -11.494,-8.543 m 14.833,11.886 c 3.153,3.325 5.352,5.724 6.092,6.645 0.464,0.577 0.473,0.57 0.144,-0.11 -0.192,-0.397 -2.31,-2.701 -4.706,-5.119 -2.396,-2.419 -3.085,-3.056 -1.53,-1.416 m -141.536,3.063 c -0.27,0.317 -0.823,1.094 -1.231,1.727 -0.762,1.184 -0.516,0.956 1.081,-1.001 0.977,-1.197 1.113,-1.859 0.15,-0.726 m -4.924,6.911 c -2.508,3.851 -4.74,7.901 -4.491,8.15 0.072,0.072 0.568,-0.789 1.101,-1.914 0.534,-1.125 2.177,-3.858 3.652,-6.075 1.475,-2.216 2.585,-4.028 2.467,-4.026 -0.118,0.002 -1.346,1.741 -2.729,3.865 m -5.032,9.043 c -0.069,0.226 -0.287,0.916 -0.485,1.534 -0.197,0.617 -0.284,1.197 -0.193,1.288 0.091,0.091 0.167,0.104 0.169,0.029 0.002,-0.075 0.217,-0.84 0.478,-1.7 0.261,-0.859 0.403,-1.562 0.315,-1.562 -0.087,0 -0.215,0.185 -0.284,0.411 m 181.425,2.756 c -1.58,4.372 -6.846,6.372 -16.769,6.372 -6.337,0 -6.237,-0.048 -5.812,2.784 0.228,1.52 0.569,1.784 3.918,3.035 2.272,0.848 2.249,0.555 1.226,15.892 -1.204,18.055 -1.967,20.368 -7.394,22.428 l -2.007,0.763 -35.033,-0.121 c -20.104,-0.068 -35.191,-0.246 -35.402,-0.416 -0.204,-0.163 -0.447,-1.441 -0.541,-2.841 -0.515,-7.657 -0.963,-13.805 -1.242,-17.017 -0.543,-6.259 -1.028,-14.468 -1.136,-19.215 -0.057,-2.517 -0.201,-4.884 -0.321,-5.261 l -0.217,-0.685 29.38,-0.086 c 25.719,-0.075 24.851,-0.087 -6.969,-0.095 -19.991,-0.005 -33.462,0.07 -29.934,0.167 3.939,0.107 6.239,0.288 5.96,0.468 -0.634,0.408 -0.282,8.038 0.957,20.76 2.12,21.779 2.252,23.632 1.701,23.972 -0.144,0.09 -4.474,0.194 -9.621,0.233 l -9.359,0.07 -1.261,-1.118 c -1.752,-1.553 -4.327,-5.133 -4.825,-6.71 -0.229,-0.724 -0.84,-1.952 -1.359,-2.73 -0.519,-0.778 -0.943,-1.484 -0.943,-1.568 0,-0.219 -2.847,-3.717 -4.131,-5.077 -6.475,-6.854 -8.648,-8.654 -13.176,-10.915 -7.412,-3.703 -18.922,-5.861 -31.25,-5.861 -3.394,0 -4.767,-0.114 -4.96,-0.412 -0.351,-0.543 -0.229,-7.743 0.141,-8.244 0.344,-0.468 0.33,-1.873 -0.026,-2.446 -0.186,-0.3 0.086,-0.424 0.998,-0.456 0.735,-0.026 0.263,-0.149 -1.141,-0.296 -2.601,-0.273 -3.237,-0.621 -3.894,-2.127 -0.236,-0.542 -0.436,-0.787 -0.443,-0.543 -0.007,0.244 0.225,0.944 0.515,1.556 0.487,1.025 0.484,1.309 -0.029,3.619 -0.744,3.34 -0.761,8.699 -0.035,10.655 1.096,2.955 1.134,2.969 7.9,2.974 14.652,0.01 23.841,1.884 33.084,6.747 2.994,1.575 13.559,13.104 14.312,15.617 0.993,3.312 5.826,9.464 8.465,10.774 l 1.4,0.694 46.217,0.079 c 42.902,0.073 46.368,0.038 48.31,-0.489 5.06,-1.374 8.017,-4.037 9.359,-8.426 0.513,-1.679 0.7,-3.003 1.557,-11.02 0.476,-4.454 0.939,-11.208 1.179,-17.216 0.247,-6.145 -0.142,-5.515 3.967,-6.422 2.255,-0.497 5.559,-2.155 6.122,-3.072 0.144,-0.235 0.442,-0.428 0.662,-0.428 0.392,0 0.559,-0.236 1.535,-2.164 0.268,-0.528 0.588,-1.036 0.711,-1.127 0.437,-0.323 0.856,-3.686 0.6,-4.819 -0.354,-1.57 -0.454,-1.595 -0.946,-0.236 m -184.052,1.297 c -0.947,0.947 -0.114,0.704 1.43,-0.417 0.075,-0.055 -0.099,-0.1 -0.388,-0.1 -0.289,0 -0.757,0.233 -1.042,0.517 m 224.812,2.147 c 0,0.199 -0.209,0.828 -0.464,1.398 -0.867,1.934 -1.838,5.147 -1.831,6.055 0.031,3.932 8.33,12.362 15.668,15.913 l 2.803,1.357 4.33,-0.183 c 6.872,-0.29 7.948,-0.809 6.367,-3.071 -5.093,-7.285 -13.31,-14.47 -22.523,-19.692 -0.319,-0.181 -1.27,-0.736 -2.112,-1.234 -1.647,-0.972 -2.238,-1.115 -2.238,-0.543 m -63.675,1.933 c -0.171,0.17 -1.641,0.359 -3.268,0.42 l -2.958,0.111 3.188,0.068 c 1.975,0.042 3.27,-0.066 3.404,-0.283 0.292,-0.472 0.022,-0.704 -0.366,-0.316 m -127.998,0.255 c 2.861,0.054 7.449,0.054 10.197,-0.001 2.748,-0.055 0.407,-0.099 -5.201,-0.099 -5.609,0 -7.857,0.045 -4.996,0.1 m -25.514,0.325 c 0.95,0.066 2.504,0.066 3.454,0 0.95,-0.067 0.172,-0.121 -1.727,-0.121 -1.9,0 -2.677,0.054 -1.727,0.121 m 11.184,0.002 c 1.493,0.061 3.935,0.061 5.428,0 1.492,-0.061 0.271,-0.111 -2.714,-0.111 -2.985,0 -4.207,0.05 -2.714,0.111 m 52.385,3.742 c -0.814,0.376 -2.591,0.825 -3.948,0.999 -6.457,0.825 -6.077,3.456 0.567,3.931 1.906,0.136 3.624,0.406 3.818,0.599 1.32,1.321 4.826,-0.539 4.826,-2.56 0,-3.073 -2.266,-4.352 -5.263,-2.969 m 26.645,0.334 c -0.829,0.384 -2.492,0.765 -3.778,0.864 -5.762,0.446 -6.403,3.416 -0.83,3.847 2.196,0.169 3.458,0.386 6.22,1.067 2.999,0.739 4.955,-3.992 2.369,-5.73 -1.373,-0.922 -2.082,-0.93 -3.981,-0.048 m -142.444,6.936 c -0.545,1.125 -1.151,2.643 -1.347,3.372 -0.196,0.729 -0.453,1.399 -0.572,1.49 -0.629,0.481 -5.308,17.607 -5.308,19.428 0,0.486 1.472,0.275 6.25,-0.893 5.578,-1.364 7.234,-2.611 8.349,-6.285 0.815,-2.687 3.185,-8.606 3.53,-8.82 0.161,-0.099 0.292,-0.992 0.292,-1.986 0,-3.203 -1.319,-4.798 -5.807,-7.023 -3.761,-1.864 -4.163,-1.811 -5.387,0.717 m -10.08,35.683 c -2.182,0.215 -2.246,0.42 -2.246,7.19 0,6.736 0.074,6.973 2.389,7.631 1.638,0.465 7.147,1.635 8.795,1.867 0.724,0.102 2.056,0.333 2.961,0.513 6.673,1.332 16.703,2.349 17.293,1.755 0.148,-0.149 0.296,-1.011 0.329,-1.915 0.104,-2.834 1.853,-9.518 3.174,-12.127 0.728,-1.438 -0.435,-1.799 -8.132,-2.52 -2.081,-0.195 -5.263,-0.564 -7.072,-0.819 -7.999,-1.13 -15.325,-1.789 -17.491,-1.575 m 100.408,5.984 c -0.1,0.161 0.189,1.457 0.642,2.879 1.146,3.598 1.543,5.956 1.711,10.151 0.079,1.991 0.286,3.764 0.458,3.942 1.157,1.194 116.318,2.038 117.495,0.861 0.241,-0.241 0.437,-1.841 0.511,-4.159 0.066,-2.073 0.252,-3.769 0.413,-3.769 0.161,0 0.293,-0.544 0.293,-1.21 0,-1.107 0.304,-2.391 1.011,-4.275 0.494,-1.315 0.094,-1.345 -23.379,-1.738 -35.717,-0.598 -76.996,-1.735 -89.309,-2.459 -7.6,-0.447 -9.678,-0.494 -9.846,-0.223 m 195.679,3.242 c -0.242,0.171 -0.063,1.437 0.57,4.032 0.727,2.988 0.922,4.562 0.927,7.494 0.006,4.382 -0.05,4.322 3.523,3.722 2.594,-0.436 4.966,-1.345 6.436,-2.465 1.358,-1.035 3.315,-2.936 3.774,-3.666 4.745,-7.538 4.588,-8.672 -1.228,-8.885 -11.113,-0.408 -13.693,-0.451 -14.002,-0.232"
       stroke="none"
       fill="#f7a904"
       fill-rule="evenodd" />
    <path
       id="path1045"
       d="m 323.355,145.098 c 0,0.199 -0.209,0.828 -0.464,1.398 -0.867,1.934 -1.838,5.147 -1.831,6.055 0.031,3.932 8.33,12.362 15.668,15.913 l 2.803,1.357 4.33,-0.183 c 6.872,-0.29 7.948,-0.809 6.367,-3.071 -5.093,-7.285 -13.31,-14.47 -22.523,-19.692 -0.319,-0.181 -1.27,-0.736 -2.112,-1.234 -1.647,-0.972 -2.238,-1.115 -2.238,-0.543 M 53.938,158.625 c -0.545,1.125 -1.151,2.643 -1.347,3.372 -0.196,0.729 -0.453,1.399 -0.572,1.49 -0.629,0.481 -5.308,17.607 -5.308,19.428 0,0.486 1.472,0.275 6.25,-0.893 5.578,-1.364 7.234,-2.611 8.349,-6.285 0.815,-2.687 3.185,-8.606 3.53,-8.82 0.161,-0.099 0.292,-0.992 0.292,-1.986 0,-3.203 -1.319,-4.798 -5.807,-7.023 -3.761,-1.864 -4.163,-1.811 -5.387,0.717"
       style="fill:#ffac00;fill-opacity:1" />
    <path
       style="fill:#a1f1fa;fill-opacity:1;stroke-width:0.271442"
       d="m 105.7554,141.75511 -1.26978,-0.0819 0.45545,-1.00731 c 0.2505,-0.55401 0.71434,-1.37219 1.03076,-1.81816 0.86689,-1.22185 1.73071,-3.02888 1.53936,-3.22022 -0.0931,-0.0931 -0.026,-0.16933 0.14913,-0.16933 0.17516,0 0.84806,-0.82451 1.49534,-1.83224 0.64728,-1.00773 2.29549,-3.2617 3.66269,-5.00884 1.3672,-1.74713 2.48581,-3.31101 2.48581,-3.47528 0,-0.42849 1.24089,-2.19583 1.41764,-2.01908 0.0814,0.0814 1.231,-1.03631 2.55464,-2.48383 5.30412,-5.80052 7.25886,-7.84341 7.45041,-7.78638 0.11043,0.0329 0.62066,-0.405 1.13386,-0.97305 0.51319,-0.56804 1.13729,-1.11117 1.38688,-1.20695 0.2496,-0.0958 1.15374,-0.64583 2.0092,-1.22234 0.85547,-0.57652 2.38991,-1.51165 3.40989,-2.07808 1.01997,-0.56643 1.91566,-1.18926 1.99042,-1.38408 0.0748,-0.19482 0.31043,-0.28725 0.52372,-0.2054 0.49465,0.18981 3.11537,-0.65876 3.49048,-1.13019 0.33065,-0.41555 1.95265,-0.72631 3.629,-0.69528 0.64531,0.0119 1.71412,-0.21751 2.37511,-0.5099 0.67429,-0.29827 1.20181,-0.40747 1.20181,-0.24878 0,0.3624 2.9676,0.0362 4.45956,-0.49018 0.73387,-0.25893 1.58206,-0.3237 2.65271,-0.20257 1.00136,0.11329 1.57388,0.0778 1.57388,-0.0976 0,-0.15163 0.36645,-0.32947 0.81433,-0.39521 0.44788,-0.0657 0.81432,-0.0185 0.81432,0.10491 0,0.12344 0.70236,0.22256 1.5608,0.22028 0.9535,-0.003 1.42025,-0.0932 1.19959,-0.23314 -0.25417,-0.16113 -0.10337,-0.28054 0.50896,-0.403 1.22921,-0.24585 1.67492,-0.21653 1.48089,0.0974 -0.10259,0.16599 0.3192,0.27144 1.08577,0.27144 0.69254,0 1.18456,-0.11159 1.09942,-0.24935 -0.23154,-0.37464 1.47854,-0.67429 1.83184,-0.32099 0.3867,0.3867 1.89439,0.38635 2.28127,-5.3e-4 0.18967,-0.18967 1.20829,-0.2643 2.77879,-0.20358 2.83252,0.1095 2.99154,0.22531 2.99793,2.1835 0.002,0.70034 0.12128,1.34572 0.26444,1.4342 0.15819,0.0978 0.20283,1.78098 0.1138,4.29123 -0.10749,3.03087 -0.0673,4.02198 0.15108,3.72321 0.22083,-0.30217 0.25182,0.0653 0.12016,1.42507 -0.12516,1.29266 -0.0864,1.83223 0.13152,1.83223 0.38806,0 0.42269,2.88352 0.0375,3.12159 -0.40471,0.25012 -0.35621,7.8142 0.0527,8.22313 0.22932,0.22932 0.31414,1.71314 0.28988,5.07135 -0.0194,2.68209 0.0758,4.8152 0.21872,4.90354 0.29952,0.18511 0.3456,2.8366 0.0494,2.84346 -0.11197,0.003 -1.05863,0.1911 -2.10368,0.41892 -1.63426,0.35625 -5.6446,0.41215 -28.66466,0.39957 -17.53912,-0.01 -27.48134,0.0851 -28.84407,0.27459 -2.05663,0.28605 -8.62269,0.47168 -11.0787,0.3132 z"
       id="path960" />
    <path
       style="fill:#a1f1fa;fill-opacity:1;stroke-width:0.271442"
       d="m 201.65609,141.11766 c -0.2624,-0.0971 -4.13332,-0.25481 -8.60205,-0.35051 -4.46873,-0.0957 -8.51506,-0.23428 -8.99185,-0.30795 -1.08004,-0.16688 -1.23415,-0.62525 -0.90017,-2.67729 0.17733,-1.08955 0.16667,-2.19121 -0.0329,-3.39953 -0.20029,-1.21283 -0.20843,-2.10193 -0.0253,-2.76517 0.14845,-0.53766 0.20035,-1.32864 0.11532,-1.75775 l -0.1546,-0.78019 -0.21735,0.6786 c -0.12893,0.40252 -0.16223,-0.13039 -0.0819,-1.30986 0.0933,-1.36899 0.009,-2.3611 -0.27059,-3.18458 -0.29348,-0.86441 -0.33217,-1.39056 -0.13952,-1.89726 0.33617,-0.8842 0.3578,-2.58725 0.0262,-2.06402 -0.16162,0.25504 -0.29107,0.0515 -0.42656,-0.67075 -0.12553,-0.66913 -0.0899,-1.07178 0.10047,-1.13524 0.16884,-0.0563 0.295,-0.79759 0.295,-1.73341 0,-1.34187 -0.073,-1.60705 -0.40716,-1.47883 -0.45212,0.1735 -0.56344,-0.24098 -0.13572,-0.50532 0.37809,-0.23367 0.33959,-1.31621 -0.0611,-1.71686 -0.26238,-0.26238 -0.26238,-0.4448 0,-0.86493 0.3913,-0.62657 0.44193,-2.06878 0.0805,-2.29217 -0.13862,-0.0857 -0.31205,0.12088 -0.38539,0.459 -0.0734,0.33812 -0.0675,-0.57666 0.013,-2.03285 0.10227,-1.85077 0.0485,-2.76552 -0.17882,-3.03937 -0.21919,-0.26411 -0.26786,-0.90499 -0.14936,-1.9669 0.11157,-0.99979 0.0835,-1.44282 -0.0767,-1.21289 -0.343,0.49208 -0.56351,-0.37933 -0.33206,-1.3123 0.18305,-0.73791 0.39546,-0.76476 4.21159,-0.53245 0.89576,0.0545 2.79461,-0.003 4.21967,-0.12753 2.23441,-0.19547 2.65203,-0.16565 3.03434,0.21666 0.48996,0.48996 2.92508,0.63305 2.92508,0.17188 0,-0.1493 0.45805,-0.2618 1.0179,-0.25002 0.55985,0.0118 0.86523,0.083 0.67861,0.15835 -0.18662,0.0753 -0.3393,0.24888 -0.3393,0.38573 0,0.35318 1.26867,0.30871 1.86782,-0.0655 0.28599,-0.1786 0.72384,-0.22462 1.01422,-0.10659 0.49263,0.20024 0.49148,0.21572 -0.0319,0.43093 -0.41703,0.17148 -0.28803,0.22765 0.55646,0.24231 0.60463,0.0105 1.21538,-0.081 1.35721,-0.20341 0.14182,-0.12237 1.05183,-0.0762 2.02224,0.10258 0.97041,0.17879 1.58726,0.33998 1.37078,0.35821 -0.67897,0.0572 0.0554,0.52152 1.14006,0.72083 0.67782,0.12455 1.01791,0.0863 1.01791,-0.1146 0,-0.16591 0.24046,-0.30165 0.53436,-0.30165 0.34067,0 0.48269,0.13466 0.39181,0.37149 -0.0872,0.22727 0.10051,0.43659 0.48355,0.53918 1.01025,0.27057 1.62954,0.20965 1.414,-0.1391 -0.13615,-0.2203 0.001,-0.26197 0.459,-0.13943 0.35925,0.0961 0.83641,0.17831 1.06035,0.18263 0.35654,0.007 0.35748,0.0393 0.008,0.26055 -0.42324,0.26766 -0.47689,0.22977 0.9886,0.69825 0.24933,0.0797 0.53253,0.0168 0.62933,-0.13988 0.2873,-0.46485 8.76126,2.22733 9.77504,3.10553 0.66474,0.57584 2.10378,1.23251 2.70094,1.23251 0.306,0 0.55637,0.10359 0.55637,0.23021 0,0.12662 0.45806,0.42056 1.01791,0.65321 4.00237,1.66318 5.22526,2.22654 5.22526,2.40717 0,0.11365 1.45775,1.20255 3.23946,2.41978 6.8303,4.66639 12.58204,9.88175 18.33722,16.62719 1.4913,1.7479 2.86394,3.178 3.05032,3.178 0.36268,0 1.70289,1.94983 1.70289,2.47749 0,0.1742 0.39698,0.81791 0.88218,1.43046 0.66032,0.83363 0.86104,1.33235 0.79809,1.98302 -0.074,0.76508 -0.15537,0.84419 -0.6786,0.65986 -0.67455,-0.23764 -1.77823,-0.077 -1.33847,0.19485 0.37293,0.23052 -55.73819,0.23011 -56.36129,-5.4e-4 z"
       id="path962" />
  </g>
</svg>
